<svg width="31" height="50" viewBox="0 0 31 50" fill="none" xmlns="http://www.w3.org/2000/svg">
<path fill-rule="evenodd" clip-rule="evenodd" d="M0.000976562 24.6743L15.8178 0V18.0307L0.000976562 24.6743ZM30.8438 24.6743L15.8178 18.0394V0L30.8438 24.6743Z" fill="#9FB1BF"/>
<path fill-rule="evenodd" clip-rule="evenodd" d="M15.8169 33.9273L0 25.2535L15.8169 18.5059V33.9273ZM30.8429 25.2549L15.8169 33.9273V18.5059L30.8429 25.2549Z" fill="#61859E"/>
<path fill-rule="evenodd" clip-rule="evenodd" d="M0 27.7585L15.8169 36.9904V49.3485L0 27.7585ZM30.8429 27.7585L15.8169 49.3485V36.9893L30.8429 27.7585Z" fill="#91A9B9"/>
<path fill-rule="evenodd" clip-rule="evenodd" d="M30.8423 24.6743L15.4209 18.0394V0L30.8423 24.6743Z" fill="#6989A2"/>
<path fill-rule="evenodd" clip-rule="evenodd" d="M30.8423 25.2549L15.4209 18.5059V33.9273L30.8423 25.2549Z" fill="#497492"/>
<path fill-rule="evenodd" clip-rule="evenodd" d="M30.8423 27.7585L15.4209 36.9893V49.3485L30.8423 27.7585Z" fill="#507A97"/>
</svg>
