<?xml version="1.0" encoding="iso-8859-1"?>
<!-- Generator: Adobe Illustrator 19.0.0, SVG Export Plug-In . SVG Version: 6.00 Build 0)  -->
<svg version="1.1" id="Capa_1" xmlns="http://www.w3.org/2000/svg" xmlns:xlink="http://www.w3.org/1999/xlink" x="0px" y="0px"
	 viewBox="0 0 512.002 512.002" style="enable-background:new 0 0 512.002 512.002;" xml:space="preserve">
<g>
	<g>
		<g>
			<circle cx="338" cy="346.001" r="20"/>
			<path d="M238,472.001H80c-22.056,0-40-17.944-40-40v-164c0-22.056,17.944-40,40-40h288c22.056,0,40,17.944,40,40v40
				c0,11.046,8.954,20,20,20c11.046,0,20-8.954,20-20v-40c0-44.112-35.888-80-80-80h-24.037v-70.534
				c0-64.771-53.832-117.466-120-117.466s-120,52.695-120,117.466v70.534H80c-44.112,0-80,35.888-80,80v164
				c0,44.112,35.888,80,80,80h158c11.046,0,20-8.954,20-20S249.046,472.001,238,472.001z M143.963,117.467
				c0-42.715,35.888-77.466,80-77.466s80,34.751,80,77.466v70.534h-160V117.467z"/>
			<path d="M503.643,325.739c-8.982-6.431-21.477-4.362-27.904,4.62l-98.581,137.7c-2.692,3.122-6.066,3.796-7.874,3.916
				c-1.854,0.123-5.424-0.112-8.567-3.061l-63.708-62.171c-7.906-7.716-20.568-7.559-28.282,0.345
				c-7.715,7.905-7.561,20.567,0.345,28.282l63.82,62.281c0.06,0.058,0.119,0.116,0.18,0.173C342.639,506.933,355.41,512,368.55,512
				c1.129,0,2.261-0.037,3.393-0.113c14.314-0.954,27.679-7.915,36.666-19.097c0.232-0.29,0.456-0.585,0.673-0.887l98.981-138.26
				C514.692,344.662,512.624,332.168,503.643,325.739z"/>
			<circle cx="262" cy="346.001" r="20"/>
			<circle cx="112" cy="346.001" r="20"/>
			<circle cx="187" cy="346.001" r="20"/>
		</g>
	</g>
</g>
<g>
</g>
<g>
</g>
<g>
</g>
<g>
</g>
<g>
</g>
<g>
</g>
<g>
</g>
<g>
</g>
<g>
</g>
<g>
</g>
<g>
</g>
<g>
</g>
<g>
</g>
<g>
</g>
<g>
</g>
</svg>
