<svg width="24" height="24" viewBox="0 0 24 24" fill="none" xmlns="http://www.w3.org/2000/svg">
<circle cx="12" cy="12" r="12" fill="#E7E7E7"/>
<path d="M10.2969 8.51769C10.2969 8.84529 10.2969 10.3075 10.2969 10.3075H9V12.4962H10.2969V19H12.9609V12.4963H14.7486C14.7486 12.4963 14.916 11.4469 14.9972 10.2995C14.7645 10.2995 12.971 10.2995 12.971 10.2995C12.971 10.2995 12.971 9.02619 12.971 8.80301C12.971 8.57934 13.2614 8.27849 13.5485 8.27849C13.8351 8.27849 14.4399 8.27849 15 8.27849C15 7.9805 15 6.9509 15 6C14.2522 6 13.4015 6 13.0265 6C10.231 5.99985 10.2969 8.19066 10.2969 8.51769Z" fill="#757575"/>
</svg>
