<svg width="18" height="18" viewBox="0 0 18 18" fill="none" xmlns="http://www.w3.org/2000/svg">
<path d="M17.1818 2.45455V2.04545C17.1818 0.916364 16.2655 0 15.1364 0C14.0073 0 13.0909 0.916364 13.0909 2.04545V2.45455C12.6409 2.45455 12.2727 2.82273 12.2727 3.27273V6.54545C12.2727 6.99545 12.6409 7.36364 13.0909 7.36364H17.1818C17.6318 7.36364 18 6.99545 18 6.54545V3.27273C18 2.82273 17.6318 2.45455 17.1818 2.45455ZM16.5273 2.45455H13.7455V2.04545C13.7455 1.27636 14.3673 0.654545 15.1364 0.654545C15.9055 0.654545 16.5273 1.27636 16.5273 2.04545V2.45455ZM14.6618 9C14.6945 9.27 14.7273 9.54 14.7273 9.81818C14.7273 11.52 14.0727 13.0664 13.0091 14.2282C12.7964 13.5655 12.1909 13.0909 11.4545 13.0909H10.6364V10.6364C10.6364 10.1864 10.2682 9.81818 9.81818 9.81818H4.90909V8.18182H6.54545C6.99545 8.18182 7.36364 7.81364 7.36364 7.36364V5.72727H9C9.9 5.72727 10.6364 4.99091 10.6364 4.09091V2.01273C9.85909 1.76727 9.04091 1.63636 8.18182 1.63636C3.66545 1.63636 0 5.30182 0 9.81818C0 14.3345 3.66545 18 8.18182 18C12.6982 18 16.3636 14.3345 16.3636 9.81818C16.3636 9.54 16.3473 9.27 16.3227 9H14.6618ZM7.36364 16.3064C4.13182 15.9055 1.63636 13.1564 1.63636 9.81818C1.63636 9.31091 1.70182 8.82818 1.80818 8.35364L5.72727 12.2727V13.0909C5.72727 13.9909 6.46364 14.7273 7.36364 14.7273V16.3064Z" fill="white"/>
</svg>
