<?xml version="1.0"?>
<svg xmlns="http://www.w3.org/2000/svg" xmlns:xlink="http://www.w3.org/1999/xlink" version="1.1" id="Layer_1" x="0px" y="0px" viewBox="0 0 492.5 492.5" style="enable-background:new 0 0 492.5 492.5;" xml:space="preserve" width="512px" height="512px" class=""><g transform="matrix(1 0 0 1 0 0)"><g>
	<g>
		<path style="fill:#373A3C" d="M82.75,0c-34.4,0-62.4,28-62.4,62.4s28,62.4,62.4,62.4s62.4-28,62.4-62.4S117.15,0,82.75,0z     M82.75,105.1c-23.5,0-42.6-19.1-42.6-42.6s19.1-42.6,42.6-42.6s42.6,19.1,42.6,42.6S106.25,105.1,82.75,105.1z" data-original="#2C2F33" class="active-path" data-old_color="#373a3c"/>
		<path style="fill:#373A3C" d="M82.75,183.9c-34.4,0-62.4,28-62.4,62.4s28,62.4,62.4,62.4s62.4-28,62.4-62.4    S117.15,183.9,82.75,183.9z M82.75,288.9c-23.5,0-42.6-19.1-42.6-42.6s19.1-42.6,42.6-42.6s42.6,19.1,42.6,42.6    S106.25,288.9,82.75,288.9z" data-original="#3C92CA" class="" data-old_color="#373a3c"/>
		<path style="fill:#373A3C" d="M82.75,367.7c-34.4,0-62.4,28-62.4,62.4s28,62.4,62.4,62.4s62.4-28,62.4-62.4    S117.15,367.7,82.75,367.7z M82.75,472.8c-23.5,0-42.6-19.1-42.6-42.6s19.1-42.6,42.6-42.6s42.6,19.1,42.6,42.6    C125.35,453.6,106.25,472.8,82.75,472.8z" data-original="#2C2F33" class="active-path" data-old_color="#373a3c"/>
		<path style="fill:#373A3C" d="M472.15,59.1c0-5.5-4.4-9.9-9.9-9.9h-250c-5.5,0-9.9,4.4-9.9,9.9s4.4,9.9,9.9,9.9h250    C467.75,69,472.15,64.6,472.15,59.1z" data-original="#2C2F33" class="active-path" data-old_color="#373a3c"/>
		<path style="fill:#373A3C" d="M208.85,236.4c-5.5,0-9.9,4.4-9.9,9.9s4.4,9.9,9.9,9.9h250c5.5,0,9.9-4.4,9.9-9.9s-4.4-9.9-9.9-9.9    H208.85z" data-original="#3C92CA" class="" data-old_color="#373a3c"/>
		<path style="fill:#373A3C" d="M468.75,430.1c0-5.5-4.4-9.9-9.9-9.9h-250c-5.5,0-9.9,4.4-9.9,9.9s4.4,9.9,9.9,9.9h250    C464.35,440,468.75,435.6,468.75,430.1z" data-original="#2C2F33" class="active-path" data-old_color="#373a3c"/>
	</g>
</g></g> </svg>
