<?xml version="1.0" encoding="iso-8859-1"?>
<!-- Generator: Adobe Illustrator 19.1.0, SVG Export Plug-In . SVG Version: 6.00 Build 0)  -->
<svg xmlns="http://www.w3.org/2000/svg" xmlns:xlink="http://www.w3.org/1999/xlink" version="1.1" id="Capa_1" x="0px" y="0px" viewBox="0 0 535.578 535.578" style="enable-background:new 0 0 535.578 535.578;" xml:space="preserve" width="512px" height="512px">
<g>
	<g>
		<g>
			<path d="M401.683,29.754c0,13.147-6.66,23.803-14.877,23.803H148.771c-8.216,0-14.877-10.657-14.877-23.803v-5.951     C133.895,10.657,140.555,0,148.771,0h238.035c8.217,0,14.877,10.657,14.877,23.803L401.683,29.754L401.683,29.754z" fill="#efb77c"/>
			<path d="M401.683,511.775c0,13.144-6.66,23.803-14.877,23.803H148.771c-8.216,0-14.877-10.658-14.877-23.803v-5.951     c0-13.145,6.661-23.803,14.877-23.803h238.035c8.217,0,14.877,10.657,14.877,23.803L401.683,511.775L401.683,511.775z" fill="#efb77c"/>
			<g>
				<path d="M267.788,268.854l-2.818-1.922c-1.201-0.82-29.757-20.441-58.755-52.427c-38.706-42.693-59.164-86.976-59.163-128.063      c0-24.483,13.39-44.937,38.721-59.149c21.726-12.19,50.853-18.903,82.016-18.903s60.29,6.713,82.016,18.902      c25.331,14.212,38.721,34.666,38.721,59.149c0,41.087-20.459,85.371-59.164,128.063c-28.999,31.985-57.554,51.606-58.756,52.426      L267.788,268.854z M267.789,18.39c-29.477,0-56.866,6.259-77.122,17.624c-15.334,8.604-33.614,24.336-33.614,50.428      c-0.001,48.719,30.764,92.879,56.572,121.346c23.045,25.419,46.273,43.134,54.163,48.875      c7.912-5.761,31.254-23.569,54.312-49.036c25.741-28.43,56.426-72.533,56.426-121.185c0-26.092-18.279-41.825-33.614-50.428      C324.655,24.649,297.266,18.39,267.789,18.39z" fill="#efb77c"/>
				<path d="M267.789,522.201c-31.163,0-60.29-6.713-82.016-18.902c-25.332-14.212-38.721-34.665-38.721-59.148      c0-41.087,20.458-85.371,59.164-128.064c28.998-31.985,57.553-51.607,58.754-52.427l2.818-1.922l2.817,1.922      c1.202,0.82,29.757,20.441,58.755,52.427c38.706,42.693,59.165,86.978,59.165,128.064c0,24.483-13.39,44.937-38.722,59.148      C328.078,515.488,298.951,522.201,267.789,522.201z M267.788,273.928c-7.914,5.763-31.254,23.57-54.31,49.036      c-25.741,28.431-56.426,72.533-56.426,121.186c0,26.091,18.28,41.823,33.614,50.427c20.256,11.365,47.645,17.624,77.123,17.624      c29.477,0,56.866-6.259,77.122-17.624c15.335-8.604,33.614-24.336,33.614-50.427c-0.001-48.652-30.686-92.755-56.427-121.186      C299.042,297.498,275.702,279.691,267.788,273.928z" fill="#efb77c"/>
			</g>
			<path d="M346.727,129.858c0,66.028-78.939,119.553-78.939,119.553s-78.939-53.525-78.939-119.553S346.727,63.83,346.727,129.858z     " fill="#efb77c"/>
		</g>
	</g>
	<g>
	</g>
	<g>
	</g>
	<g>
	</g>
	<g>
	</g>
	<g>
	</g>
	<g>
	</g>
	<g>
	</g>
	<g>
	</g>
	<g>
	</g>
	<g>
	</g>
	<g>
	</g>
	<g>
	</g>
	<g>
	</g>
	<g>
	</g>
	<g>
	</g>
</g>
<g>
</g>
<g>
</g>
<g>
</g>
<g>
</g>
<g>
</g>
<g>
</g>
<g>
</g>
<g>
</g>
<g>
</g>
<g>
</g>
<g>
</g>
<g>
</g>
<g>
</g>
<g>
</g>
<g>
</g>
</svg>
