<svg width="24" height="24" viewBox="0 0 24 24" fill="none" xmlns="http://www.w3.org/2000/svg">
<circle cx="12" cy="12" r="12" fill="#E7E7E7"/>
<path d="M7.30439 9.83598C7.31806 9.69682 7.26656 9.55927 7.16573 9.46561L6.13866 8.19048V8H9.32773L11.7927 13.5714L13.9599 8H17V8.19048L16.1218 9.0582C16.0461 9.11767 16.0086 9.21542 16.0243 9.31217V15.6878C16.0086 15.7846 16.0461 15.8823 16.1218 15.9418L16.9795 16.8095V17H12.6657V16.8095L13.5542 15.9206C13.6415 15.8307 13.6415 15.8042 13.6415 15.6667V10.5132L11.1713 16.9788H10.8375L7.96172 10.5132V14.8466C7.93774 15.0287 7.99645 15.2122 8.12092 15.3439L9.27638 16.7884V16.9788H6V16.7884L7.15546 15.3439C7.27902 15.2119 7.33431 15.0273 7.30439 14.8466V9.83598Z" fill="#393939"/>
</svg>
