<svg width="24" height="24" viewBox="0 0 24 24" fill="none" xmlns="http://www.w3.org/2000/svg">
<circle cx="12" cy="12" r="12" fill="#E7E7E7"/>
<path d="M8.30439 9.83598C8.31806 9.69682 8.26656 9.55927 8.16573 9.46561L7.13866 8.19048V8H10.3277L12.7927 13.5714L14.9599 8H18V8.19048L17.1218 9.0582C17.0461 9.11767 17.0086 9.21542 17.0243 9.31217V15.6878C17.0086 15.7846 17.0461 15.8823 17.1218 15.9418L17.9795 16.8095V17H13.6657V16.8095L14.5542 15.9206C14.6415 15.8307 14.6415 15.8042 14.6415 15.6667V10.5132L12.1713 16.9788H11.8375L8.96172 10.5132V14.8466C8.93774 15.0287 8.99645 15.2122 9.12092 15.3439L10.2764 16.7884V16.9788H7V16.7884L8.15546 15.3439C8.27902 15.2119 8.33431 15.0273 8.30439 14.8466V9.83598Z" fill="#757575"/>
</svg>
