<svg width="18" height="18" viewBox="0 0 18 18" fill="none" xmlns="http://www.w3.org/2000/svg">
<path d="M0 7.0822V10.6171C0 10.9093 0.0942 11.1775 0.2505 11.3995H17.7492C17.9058 11.1778 18 10.9093 18 10.6174V7.0822C18 6.79 17.9058 6.5218 17.7495 6.2998H0.2505C0.0942 6.5218 0 6.7903 0 7.0822ZM15.6 8.9998C15.7656 8.9998 15.9 9.1342 15.9 9.2998C15.9 9.4654 15.7656 9.5998 15.6 9.5998C15.4344 9.5998 15.3 9.4654 15.3 9.2998C15.3 9.1342 15.4344 8.9998 15.6 8.9998ZM15 8.0998C15.1656 8.0998 15.3 8.2342 15.3 8.3998C15.3 8.5654 15.1656 8.6998 15 8.6998C14.8344 8.6998 14.7 8.5654 14.7 8.3998C14.7 8.2342 14.8344 8.0998 15 8.0998ZM14.4 8.9998C14.5656 8.9998 14.7 9.1342 14.7 9.2998C14.7 9.4654 14.5656 9.5998 14.4 9.5998C14.2344 9.5998 14.1 9.4654 14.1 9.2998C14.1 9.1342 14.2344 8.9998 14.4 8.9998ZM13.8 8.0998C13.9656 8.0998 14.1 8.2342 14.1 8.3998C14.1 8.5654 13.9656 8.6998 13.8 8.6998C13.6344 8.6998 13.5 8.5654 13.5 8.3998C13.5 8.2342 13.6344 8.0998 13.8 8.0998ZM13.2 8.9998C13.3656 8.9998 13.5 9.1342 13.5 9.2998C13.5 9.4654 13.3656 9.5998 13.2 9.5998C13.0344 9.5998 12.9 9.4654 12.9 9.2998C12.9 9.1342 13.0344 8.9998 13.2 8.9998ZM12.6 8.0998C12.7656 8.0998 12.9 8.2342 12.9 8.3998C12.9 8.5654 12.7656 8.6998 12.6 8.6998C12.4344 8.6998 12.3 8.5654 12.3 8.3998C12.3 8.2342 12.4344 8.0998 12.6 8.0998ZM12 8.9998C12.1656 8.9998 12.3 9.1342 12.3 9.2998C12.3 9.4654 12.1656 9.5998 12 9.5998C11.8344 9.5998 11.7 9.4654 11.7 9.2998C11.7 9.1342 11.8344 8.9998 12 8.9998ZM11.4 8.0998C11.5656 8.0998 11.7 8.2342 11.7 8.3998C11.7 8.5654 11.5656 8.6998 11.4 8.6998C11.2344 8.6998 11.1 8.5654 11.1 8.3998C11.1 8.2342 11.2344 8.0998 11.4 8.0998ZM10.8 8.9998C10.9656 8.9998 11.1 9.1342 11.1 9.2998C11.1 9.4654 10.9656 9.5998 10.8 9.5998C10.6344 9.5998 10.5 9.4654 10.5 9.2998C10.5 9.1342 10.6344 8.9998 10.8 8.9998ZM10.2 8.0998C10.3656 8.0998 10.5 8.2342 10.5 8.3998C10.5 8.5654 10.3656 8.6998 10.2 8.6998C10.0344 8.6998 9.9 8.5654 9.9 8.3998C9.9 8.2342 10.0344 8.0998 10.2 8.0998ZM3.15 7.4998C3.8943 7.4998 4.5 8.1055 4.5 8.8498C4.5 9.5941 3.8943 10.1998 3.15 10.1998C2.4057 10.1998 1.8 9.5941 1.8 8.8498C1.8 8.1055 2.4057 7.4998 3.15 7.4998Z" fill="#3A3C3F"/>
<path d="M17.7495 5.7C17.9058 5.478 18 5.2095 18 4.9176V1.3824C18 0.6201 17.3799 0 16.6176 0H1.3824C0.6201 0 0 0.6201 0 1.3824V4.9173C0 5.2095 0.0942 5.4777 0.2505 5.6997H17.7495V5.7ZM15.6 3.3C15.7656 3.3 15.9 3.4344 15.9 3.6C15.9 3.7656 15.7656 3.9 15.6 3.9C15.4344 3.9 15.3 3.7656 15.3 3.6C15.3 3.4344 15.4344 3.3 15.6 3.3ZM15 2.4C15.1656 2.4 15.3 2.5344 15.3 2.7C15.3 2.8656 15.1656 3 15 3C14.8344 3 14.7 2.8656 14.7 2.7C14.7 2.5344 14.8344 2.4 15 2.4ZM14.4 3.3C14.5656 3.3 14.7 3.4344 14.7 3.6C14.7 3.7656 14.5656 3.9 14.4 3.9C14.2344 3.9 14.1 3.7656 14.1 3.6C14.1 3.4344 14.2344 3.3 14.4 3.3ZM13.8 2.4C13.9656 2.4 14.1 2.5344 14.1 2.7C14.1 2.8656 13.9656 3 13.8 3C13.6344 3 13.5 2.8656 13.5 2.7C13.5 2.5344 13.6344 2.4 13.8 2.4ZM13.2 3.3C13.3656 3.3 13.5 3.4344 13.5 3.6C13.5 3.7656 13.3656 3.9 13.2 3.9C13.0344 3.9 12.9 3.7656 12.9 3.6C12.9 3.4344 13.0344 3.3 13.2 3.3ZM12.6 2.4C12.7656 2.4 12.9 2.5344 12.9 2.7C12.9 2.8656 12.7656 3 12.6 3C12.4344 3 12.3 2.8656 12.3 2.7C12.3 2.5344 12.4344 2.4 12.6 2.4ZM12 3.3C12.1656 3.3 12.3 3.4344 12.3 3.6C12.3 3.7656 12.1656 3.9 12 3.9C11.8344 3.9 11.7 3.7656 11.7 3.6C11.7 3.4344 11.8344 3.3 12 3.3ZM11.4 2.4C11.5656 2.4 11.7 2.5344 11.7 2.7C11.7 2.8656 11.5656 3 11.4 3C11.2344 3 11.1 2.8656 11.1 2.7C11.1 2.5344 11.2344 2.4 11.4 2.4ZM10.8 3.3C10.9656 3.3 11.1 3.4344 11.1 3.6C11.1 3.7656 10.9656 3.9 10.8 3.9C10.6344 3.9 10.5 3.7656 10.5 3.6C10.5 3.4344 10.6344 3.3 10.8 3.3ZM10.2 2.4C10.3656 2.4 10.5 2.5344 10.5 2.7C10.5 2.8656 10.3656 3 10.2 3C10.0344 3 9.9 2.8656 9.9 2.7C9.9 2.5344 10.0344 2.4 10.2 2.4ZM3.15 1.8C3.8943 1.8 4.5 2.4057 4.5 3.15C4.5 3.8943 3.8943 4.5 3.15 4.5C2.4057 4.5 1.8 3.8943 1.8 3.15C1.8 2.4057 2.4057 1.8 3.15 1.8Z" fill="#3A3C3F"/>
<path d="M0.2505 12C0.0942 12.222 0 12.4905 0 12.7824V16.3173C0 17.0799 0.6201 17.7 1.3824 17.7H16.6173C17.3796 17.7 17.9997 17.0799 17.9997 16.3176V12.7824C17.9997 12.4902 17.9055 12.222 17.7492 12H0.2505ZM3.15 15.9C2.4057 15.9 1.8 15.2943 1.8 14.55C1.8 13.8057 2.4057 13.2 3.15 13.2C3.8943 13.2 4.5 13.8057 4.5 14.55C4.5 15.2943 3.8943 15.9 3.15 15.9ZM10.2 14.4C10.0344 14.4 9.9 14.2656 9.9 14.1C9.9 13.9344 10.0344 13.8 10.2 13.8C10.3656 13.8 10.5 13.9344 10.5 14.1C10.5 14.2656 10.3656 14.4 10.2 14.4ZM10.8 15.3C10.6344 15.3 10.5 15.1656 10.5 15C10.5 14.8344 10.6344 14.7 10.8 14.7C10.9656 14.7 11.1 14.8344 11.1 15C11.1 15.1656 10.9656 15.3 10.8 15.3ZM11.4 14.4C11.2344 14.4 11.1 14.2656 11.1 14.1C11.1 13.9344 11.2344 13.8 11.4 13.8C11.5656 13.8 11.7 13.9344 11.7 14.1C11.7 14.2656 11.5656 14.4 11.4 14.4ZM12 15.3C11.8344 15.3 11.7 15.1656 11.7 15C11.7 14.8344 11.8344 14.7 12 14.7C12.1656 14.7 12.3 14.8344 12.3 15C12.3 15.1656 12.1656 15.3 12 15.3ZM12.6 14.4C12.4344 14.4 12.3 14.2656 12.3 14.1C12.3 13.9344 12.4344 13.8 12.6 13.8C12.7656 13.8 12.9 13.9344 12.9 14.1C12.9 14.2656 12.7656 14.4 12.6 14.4ZM13.2 15.3C13.0344 15.3 12.9 15.1656 12.9 15C12.9 14.8344 13.0344 14.7 13.2 14.7C13.3656 14.7 13.5 14.8344 13.5 15C13.5 15.1656 13.3656 15.3 13.2 15.3ZM13.8 14.4C13.6344 14.4 13.5 14.2656 13.5 14.1C13.5 13.9344 13.6344 13.8 13.8 13.8C13.9656 13.8 14.1 13.9344 14.1 14.1C14.1 14.2656 13.9656 14.4 13.8 14.4ZM14.4 15.3C14.2344 15.3 14.1 15.1656 14.1 15C14.1 14.8344 14.2344 14.7 14.4 14.7C14.5656 14.7 14.7 14.8344 14.7 15C14.7 15.1656 14.5656 15.3 14.4 15.3ZM15 14.4C14.8344 14.4 14.7 14.2656 14.7 14.1C14.7 13.9344 14.8344 13.8 15 13.8C15.1656 13.8 15.3 13.9344 15.3 14.1C15.3 14.2656 15.1656 14.4 15 14.4ZM15.6 15.3C15.4344 15.3 15.3 15.1656 15.3 15C15.3 14.8344 15.4344 14.7 15.6 14.7C15.7656 14.7 15.9 14.8344 15.9 15C15.9 15.1656 15.7656 15.3 15.6 15.3Z" fill="#3A3C3F"/>
</svg>
