<svg width="124" height="135" viewBox="0 0 124 135" fill="none" xmlns="http://www.w3.org/2000/svg">
<g clip-path="url(#clip0)">
<path d="M47.225 71.982C46.8597 71.5819 46.3975 71.2827 45.9199 71.0334C44.8799 70.4911 43.7426 70.1622 42.6133 69.8652V78.6159C44.4462 78.4087 46.5506 77.7435 47.513 76.0323C47.9724 75.2149 48.0638 74.2106 47.8767 73.3007C47.7751 72.8077 47.5654 72.3551 47.225 71.982Z" fill="#3A3C3F"/>
<path d="M47.5078 76.0423C47.5102 76.0382 47.5116 76.0356 47.5142 76.0312C47.5121 76.0349 47.5099 76.0385 47.5078 76.0423Z" fill="black"/>
<path d="M34.013 57.9939C33.6978 58.4541 33.5001 58.9768 33.4456 59.5325C33.391 60.0893 33.4216 60.7087 33.6332 61.2328C33.8346 61.7323 34.2565 62.1011 34.692 62.398C35.1807 62.7304 35.7182 62.9901 36.2655 63.2101C36.7248 63.3949 37.2413 63.5717 37.7981 63.7425V55.8242C36.3915 56.1244 34.8545 56.7652 34.013 57.9939Z" fill="#3A3C3F"/>
<path d="M47.5455 75.9688C47.5347 75.9879 47.5231 76.0079 47.5117 76.029C47.5251 76.0045 47.5356 75.9864 47.5455 75.9688Z" fill="black"/>
<path d="M47.5928 75.8821C47.5949 75.878 47.5953 75.8777 47.5928 75.8821V75.8821Z" fill="black"/>
<path d="M45.6948 28.2848C53.1364 22.0335 58.1088 7.95015 55.0487 7.33418C50.9828 6.51542 42.1534 10.1056 37.8858 10.7381C31.8329 11.469 25.2405 4.17446 21.54 8.24042C18.5313 11.5463 23.6971 23.5688 31.7791 28.8064C7.6669 40.6571 -26.2243 100.149 32.9007 104.466C114.71 110.439 73.7454 39.8331 45.6948 28.2848ZM52.7207 75.2028C52.4691 77.5221 51.2399 79.6195 49.4026 81.0434C47.4626 82.547 45.0293 83.2463 42.6117 83.4422V86.0048C42.6117 86.6905 42.3122 87.3537 41.7989 87.8076C41.0934 88.4319 40.0567 88.5859 39.2004 88.1913C38.3549 87.8023 37.7995 86.9352 37.7995 86.0048V83.2039C37.3849 83.1252 36.9734 83.0315 36.5666 82.9199C34.3072 82.2991 32.2113 81.089 30.6804 79.2987C29.9178 78.4062 29.2961 77.3937 28.8661 76.3005C28.7538 76.0149 28.6536 75.7239 28.5659 75.4297C28.4865 75.1634 28.4046 74.8927 28.3763 74.6151C28.3286 74.1495 28.4209 73.6744 28.638 73.2596C29.0841 72.4063 30.0241 71.8909 30.984 71.9765C31.9287 72.0603 32.7566 72.7159 33.054 73.6164C33.1456 73.8937 33.2078 74.178 33.3107 74.4524C33.4127 74.7249 33.5358 74.9899 33.6806 75.2421C33.9665 75.7389 34.3246 76.1969 34.7371 76.5945C35.5874 77.4137 36.6704 77.9461 37.7995 78.2628V68.742C35.5918 68.1705 33.313 67.4322 31.4899 66.0148C30.604 65.3256 29.8522 64.4693 29.3598 63.4558C28.8403 62.3862 28.6251 61.1945 28.6163 60.0109C28.6074 58.8091 28.8357 57.6179 29.337 56.5229C29.8066 55.4977 30.4827 54.5772 31.3116 53.8142C33.084 52.1828 35.4383 51.2729 37.7997 50.9387V50.7292V48.2785C37.7997 47.593 38.0992 46.9296 38.6125 46.4757C39.3182 45.8517 40.3545 45.6974 41.211 46.092C42.0563 46.4812 42.6119 47.3481 42.6119 48.2785V50.7292V50.9242C42.9266 50.9638 43.2403 51.0112 43.5525 51.0678C45.8713 51.4875 48.1393 52.445 49.8351 54.1168C50.6384 54.9087 51.2961 55.8522 51.7585 56.8811C51.8876 57.1682 52.0006 57.4619 52.0985 57.7613C52.1896 58.0405 52.2812 58.328 52.3247 58.6195C52.3943 59.0847 52.3234 59.5653 52.1243 59.9909C51.7164 60.8628 50.8016 61.418 49.8392 61.3768C48.8936 61.3356 48.0369 60.7199 47.6983 59.836C47.5975 59.5731 47.5471 59.2948 47.4442 59.0326C47.3404 58.7672 47.2059 58.514 47.051 58.2749C46.7499 57.8099 46.3598 57.4112 45.9144 57.0828C44.9499 56.3706 43.7801 55.9995 42.6112 55.7921V64.9032C44.0004 65.2358 45.3907 65.5986 46.7216 66.1234C48.7332 66.9166 50.6393 68.1329 51.7373 70.0508C51.567 69.752 51.4012 69.4609 51.7431 70.0607C52.0787 70.65 51.9185 70.3692 51.75 70.0738C52.6235 71.6133 52.9106 73.4541 52.7207 75.2028Z" fill="#142D51"/>
<path d="M47.4711 76.0918C47.4579 76.1152 47.4465 76.1359 47.4375 76.1516C47.4452 76.1381 47.4569 76.1176 47.4711 76.0918Z" fill="black"/>
<path d="M123.429 92.3333L87.873 55V76.3333C52.3175 81.6667 37.0794 108.333 32 135C44.6984 116.333 62.4762 107.8 87.873 107.8V129.667L123.429 92.3333Z" fill="#142D51"/>
<path fill-rule="evenodd" clip-rule="evenodd" d="M83.061 107.907C84.6339 107.835 86.2376 107.8 87.873 107.8V129.667L123.429 92.3333L87.873 55V76.3333C57.4724 80.8934 41.925 101.049 34.8808 123.466C33.6864 127.268 32.7364 131.134 32 135C34.2111 131.75 36.5761 128.807 39.1086 126.162C50.1838 114.598 64.4608 108.748 83.061 107.907ZM42.7755 116.227C54.7504 107.014 69.6069 102.747 87.873 102.747H92.685V117.469L116.623 92.3333L92.685 67.1981V80.7155L88.5535 81.3352C71.885 83.8355 60.2403 91.2607 52.1294 100.994C48.3081 105.579 45.2244 110.735 42.7755 116.227Z" fill="#139DEE"/>
<circle cx="40" cy="67" r="24" fill="#142D51"/>
<path d="M24.1591 55H54V69.8249L37.3186 57.5311H33.6116L54 72.5367C52.5408 81.9832 45.1367 85.7662 40.4962 86.7602C39.5035 86.9729 38.4731 86.9083 37.4938 86.6401C25.0634 83.2353 23.3858 72.089 24.1591 66.7514L45.6594 82.1186L47.3275 80.4915L24.1591 63.678V55Z" fill="#139DEE"/>
</g>
<defs>
<clipPath id="clip0">
<rect width="124" height="135" fill="white"/>
</clipPath>
</defs>
</svg>
