<svg width="22" height="15" viewBox="0 0 22 15" fill="none" xmlns="http://www.w3.org/2000/svg">
<path d="M21.3284 12.9918C21.3268 12.9454 21.3251 12.8988 21.3235 12.8521C21.3218 12.8053 21.3201 12.7585 21.3184 12.7114L21.317 12.6761L21.3164 12.6584L21.3162 12.654L21.3157 12.6145L21.3156 12.6127L21.315 12.6053L21.3105 12.5468C21.3044 12.4687 21.2984 12.3902 21.2923 12.3118L21.2876 12.2524L21.2806 12.1754C21.2758 12.1242 21.2709 12.073 21.2661 12.0219C21.2611 11.9709 21.2561 11.92 21.2511 11.8693C21.2485 11.8439 21.246 11.8186 21.2434 11.7934C21.2403 11.77 21.2372 11.7467 21.2341 11.7233C21.2085 11.5383 21.1857 11.3564 21.1531 11.1816C21.1377 11.0941 21.1235 11.0081 21.1075 10.9243C21.0901 10.8407 21.073 10.7589 21.0564 10.6792C21.0249 10.5199 20.9854 10.3711 20.952 10.2335C20.9435 10.1991 20.9352 10.1655 20.927 10.1326C20.9179 10.0999 20.909 10.068 20.9004 10.0369C20.8828 9.97478 20.8662 9.91584 20.8505 9.86052C20.8346 9.80527 20.8205 9.7534 20.8059 9.70585C20.7907 9.65846 20.7768 9.6149 20.7643 9.57556C20.7457 9.51777 20.73 9.4691 20.7176 9.43064C20.6993 9.37386 20.6393 9.34193 20.5819 9.35828L16.9759 10.3859C16.921 10.4016 16.8869 10.4563 16.8974 10.5125C16.9013 10.5334 16.9057 10.5575 16.9107 10.5843C16.9159 10.6114 16.9216 10.6414 16.9278 10.674C16.9336 10.7067 16.9382 10.7426 16.9441 10.7804C16.9499 10.8184 16.9561 10.8587 16.9626 10.9013C16.9657 10.9226 16.9695 10.9442 16.9724 10.9666C16.975 10.9891 16.9776 11.0121 16.9803 11.0356C16.9903 11.1295 17.0053 11.2302 17.012 11.3382C17.0164 11.3919 17.021 11.4471 17.0257 11.5035C17.0292 11.56 17.0309 11.6179 17.0339 11.6766C17.0418 11.7936 17.0403 11.9155 17.0425 12.0384L17.043 12.0841L17.0414 12.1247C17.0405 12.1517 17.0396 12.1787 17.0386 12.2059C17.0379 12.2329 17.0372 12.26 17.0364 12.2871L17.0356 12.3277L17.0331 12.3861C17.0298 12.4647 17.0264 12.5433 17.0231 12.6216L17.0206 12.6803L17.0202 12.6876L17.0202 12.6894C17.0202 12.6982 17.0195 12.6196 17.0197 12.6535L17.0194 12.6564L17.0183 12.668L17.0162 12.6912C17.0134 12.722 17.0106 12.7526 17.0079 12.7833C17.0052 12.8138 17.0025 12.8442 16.9999 12.8745C16.9963 12.9046 16.9927 12.9346 16.9892 12.9644C16.9815 13.0239 16.9768 13.0828 16.9673 13.1402C16.959 13.1977 16.9508 13.2541 16.9428 13.3094C16.9333 13.3643 16.9239 13.418 16.9149 13.4703C16.9066 13.5226 16.8956 13.573 16.8859 13.6217C16.8756 13.6704 16.8675 13.7177 16.8568 13.7625C16.8465 13.8074 16.8366 13.8503 16.8271 13.8912C16.8224 13.9113 16.8179 13.931 16.8135 13.9501C16.809 13.9665 16.8046 13.9824 16.8003 13.9978C16.7978 14.0072 16.7954 14.0161 16.793 14.0252H21.2034C21.2625 14.0252 21.3117 13.9788 21.314 13.9198C21.314 13.9194 21.314 13.9191 21.314 13.9187C21.3177 13.8366 21.3214 13.7523 21.3253 13.666C21.3269 13.5799 21.3286 13.4919 21.3303 13.4024C21.3328 13.313 21.3301 13.2222 21.3299 13.1303C21.3294 13.0844 21.3289 13.0382 21.3284 12.9918Z" fill="white"/>
<path d="M20.1801 8.36286C20.2393 8.33904 20.2662 8.27051 20.239 8.21288C20.2268 8.18726 20.2127 8.15731 20.1966 8.12343C20.1815 8.09159 20.1647 8.05634 20.1465 8.01797C20.123 7.97 20.0975 7.91813 20.0703 7.8627C20.0428 7.80749 20.0137 7.74873 19.9829 7.68681C19.9673 7.65462 19.9519 7.62806 19.9359 7.59784C19.9199 7.56829 19.9035 7.53807 19.8868 7.5072C19.8532 7.44559 19.8188 7.38118 19.7819 7.31521C19.7438 7.24997 19.7045 7.18248 19.664 7.1131C19.6437 7.0785 19.6231 7.04341 19.6023 7.00794C19.5805 6.973 19.5584 6.93764 19.5361 6.9019C19.4912 6.8307 19.4454 6.75794 19.3989 6.68398C19.3006 6.53917 19.2028 6.38771 19.0936 6.24031C19.0668 6.2032 19.0398 6.16595 19.0128 6.12859L18.9722 6.0726L18.9299 6.01752C18.8733 5.94426 18.8165 5.87076 18.7597 5.79723C18.7019 5.72455 18.6421 5.6534 18.5834 5.58198C18.5538 5.54651 18.5251 5.51052 18.4948 5.47585C18.4645 5.4413 18.4343 5.40684 18.4041 5.37251C18.374 5.33831 18.344 5.30419 18.3141 5.27026C18.2844 5.2362 18.2544 5.20273 18.2235 5.17035C18.1624 5.10522 18.102 5.0409 18.0426 4.97761C17.9831 4.91452 17.9215 4.85522 17.8628 4.79595C17.8038 4.73699 17.7464 4.67909 17.6878 4.62532C17.6299 4.57107 17.5735 4.51831 17.519 4.46725C17.4647 4.41609 17.4092 4.36961 17.3576 4.32359C17.3055 4.27805 17.2556 4.23443 17.2082 4.19294C17.1595 4.15282 17.1133 4.11479 17.0699 4.07904C17.0265 4.04343 16.9859 4.01011 16.9483 3.97931C16.9107 3.94862 16.8747 3.92201 16.843 3.89721C16.7968 3.86175 16.7578 3.8318 16.7267 3.808C16.6795 3.77172 16.6121 3.77947 16.5741 3.82543L14.6387 6.16818C14.6022 6.21236 14.6053 6.27693 14.646 6.31726C14.6622 6.33324 14.6809 6.35174 14.7019 6.37255C14.7221 6.39278 14.7451 6.4142 14.7688 6.43921C14.7925 6.4642 14.818 6.49126 14.8453 6.52013C14.8727 6.54887 14.9018 6.57945 14.9324 6.61169C14.962 6.64496 14.9931 6.68001 15.0256 6.71654C15.0576 6.7534 15.0926 6.79 15.1259 6.83082C15.1595 6.87123 15.1943 6.91299 15.23 6.95594C15.2664 6.9981 15.3012 7.04388 15.3371 7.09013C15.3727 7.1367 15.4107 7.18261 15.4465 7.23185C15.4822 7.28093 15.5186 7.33082 15.5554 7.38133C15.5742 7.40619 15.592 7.43212 15.6095 7.45843C15.6272 7.48457 15.6451 7.51079 15.663 7.53715C15.6809 7.56337 15.6989 7.58973 15.7169 7.61618C15.7349 7.64263 15.7514 7.67029 15.7688 7.69734C15.803 7.75194 15.8384 7.80574 15.872 7.86072C15.9048 7.91625 15.9375 7.97179 15.9701 8.02709L15.9946 8.06836L16.0175 8.1105C16.0328 8.13847 16.0481 8.1664 16.0633 8.19418C16.126 8.30394 16.179 8.41712 16.2344 8.52345C16.2598 8.57797 16.2847 8.63154 16.3092 8.68403C16.3214 8.71016 16.3335 8.73603 16.3454 8.76155C16.3565 8.78755 16.3674 8.81322 16.3782 8.83856C16.3998 8.88899 16.4209 8.93811 16.4413 8.98556C16.4601 9.03367 16.4783 9.08014 16.4958 9.12473C16.5045 9.147 16.5131 9.16881 16.5214 9.19011C16.5293 9.2109 16.5391 9.2334 16.5444 9.25071C16.5568 9.28706 16.5686 9.32157 16.5797 9.35399C16.591 9.38618 16.6016 9.41629 16.6114 9.44415C16.6243 9.48257 16.6361 9.51777 16.6468 9.54961C16.6586 9.58517 16.6691 9.61661 16.6781 9.64355C16.6983 9.70401 16.7652 9.73484 16.8244 9.71108L20.1801 8.36286Z" fill="white"/>
<path d="M10.3245 4.17807C10.3538 4.18207 10.3862 4.18649 10.4216 4.19132C10.4567 4.19742 10.4947 4.20405 10.5353 4.21112C10.5758 4.21808 10.6189 4.22547 10.6643 4.23328C10.7038 4.23984 10.7446 4.24935 10.7871 4.25825L12.0086 1.75977C11.9481 1.75032 11.888 1.74093 11.8291 1.73175C11.7888 1.72576 11.7491 1.71886 11.7096 1.71392C11.6701 1.70914 11.631 1.7044 11.5924 1.69973C11.5155 1.6906 11.4406 1.68168 11.3682 1.67308C11.2956 1.66686 11.2254 1.66085 11.1581 1.65508C11.0907 1.64991 11.0265 1.64311 10.965 1.64019C10.9036 1.63718 10.8454 1.63431 10.7906 1.63161C10.736 1.62903 10.6848 1.62663 10.6376 1.62439C10.5903 1.62362 10.5468 1.62293 10.5075 1.6223C10.4523 1.62162 10.4054 1.62106 10.3678 1.62061C10.3082 1.6199 10.2589 1.66648 10.256 1.72602L10.1447 4.05151C10.1419 4.10881 10.1833 4.15869 10.2401 4.16649C10.2643 4.16981 10.2925 4.17369 10.3245 4.17807Z" fill="white"/>
<path d="M13.6058 5.45848C13.6387 5.48235 13.6698 5.50498 13.699 5.52629C13.7283 5.54726 13.7557 5.56688 13.7811 5.58504C13.792 5.59259 13.8102 5.60633 13.825 5.61733C13.8402 5.62871 13.8547 5.63956 13.8685 5.64984C13.8985 5.67227 13.9251 5.69207 13.9478 5.70902C13.9989 5.74715 14.0714 5.73426 14.1064 5.68096L15.7012 3.25177C15.7362 3.19847 15.7192 3.12678 15.6639 3.09506C15.6393 3.08096 15.6106 3.06448 15.578 3.04582C15.5631 3.03724 15.5474 3.02824 15.5309 3.01876C15.5129 3.00859 15.4941 2.99795 15.4745 2.98686C15.4291 2.96185 15.38 2.93484 15.3276 2.90594C15.2752 2.87736 15.2193 2.84696 15.1605 2.81488C15.1045 2.78679 15.0455 2.75727 14.984 2.72644C14.9223 2.69631 14.8593 2.66279 14.7917 2.63237C14.7245 2.60157 14.655 2.56971 14.5836 2.53695C14.5126 2.50345 14.4377 2.47303 14.3617 2.4411C14.2853 2.40985 14.2085 2.37568 14.1283 2.34553C14.108 2.33782 14.0873 2.33003 14.0669 2.32227L13.3789 5.3083C13.4169 5.33219 13.4528 5.35752 13.4881 5.38037C13.5292 5.40761 13.5684 5.43367 13.6058 5.45848Z" fill="white"/>
<path d="M8.18058 4.16578C8.21138 4.16172 8.24163 4.15669 8.27182 4.1535C8.30202 4.15045 8.33186 4.14742 8.36127 4.14441C8.41998 4.13832 8.47708 4.1324 8.53233 4.12665C8.58774 4.12295 8.64129 4.11935 8.69268 4.1159C8.71832 4.11414 8.74342 4.11244 8.76796 4.11075C8.79244 4.10912 8.81695 4.10703 8.83797 4.10701C8.88128 4.10586 8.92239 4.1048 8.96098 4.10379C8.99946 4.10258 9.03543 4.10144 9.06875 4.10038C9.10981 4.10011 9.14753 4.09987 9.18157 4.09964C9.21906 4.09944 9.2522 4.09926 9.28054 4.0991C9.3443 4.09876 9.39441 4.04477 9.39024 3.98114L9.24668 1.79053C9.24248 1.7269 9.18577 1.67991 9.12252 1.6879C9.09439 1.69145 9.06154 1.6956 9.02434 1.70029C8.98985 1.70467 8.95166 1.70954 8.91008 1.71484C8.86096 1.72214 8.80784 1.73 8.75106 1.73841C8.69446 1.74704 8.6342 1.75622 8.57068 1.7659C8.53817 1.77048 8.50824 1.77656 8.47683 1.78249C8.44551 1.78846 8.41347 1.79459 8.38076 1.80083C8.31545 1.81345 8.24744 1.82661 8.17699 1.84021C8.1071 1.85613 8.0348 1.87261 7.96051 1.88951C7.92344 1.89802 7.88586 1.90667 7.84782 1.91542C7.80984 1.92432 7.77174 1.93518 7.7331 1.94517C7.65597 1.96572 7.57724 1.98671 7.49713 2.00804C7.41783 2.03195 7.3372 2.05624 7.25561 2.08085C7.21493 2.09344 7.17382 2.10532 7.13296 2.11877C7.09228 2.13267 7.0513 2.14661 7.01022 2.16064C6.9692 2.1747 6.92802 2.1888 6.88673 2.20296C6.84542 2.21702 6.80404 2.23114 6.76323 2.24724C6.68139 2.27847 6.59924 2.30983 6.51709 2.3412C6.4353 2.37321 6.35485 2.40869 6.27423 2.44225C6.23404 2.45938 6.19374 2.47591 6.15402 2.49349C6.11457 2.5117 6.07526 2.52984 6.03608 2.54793C5.99699 2.56603 5.95804 2.58408 5.91931 2.60202C5.88058 2.61994 5.84201 2.63758 5.80451 2.65705C5.72926 2.69504 5.65492 2.73258 5.58182 2.76949C5.50869 2.80615 5.439 2.84661 5.36978 2.88386C5.30088 2.9218 5.23312 2.95799 5.1692 2.99699C5.10492 3.03511 5.04239 3.07223 4.9819 3.1081C4.92124 3.14349 4.86498 3.1817 4.80983 3.21623C4.75507 3.25132 4.70261 3.28498 4.65269 3.31697C4.60386 3.35049 4.55752 3.38229 4.51399 3.41217C4.47057 3.44207 4.42993 3.47005 4.39234 3.49594C4.35481 3.52182 4.3216 3.54749 4.291 3.56967C4.24953 3.60029 4.21412 3.62643 4.18547 3.64758C4.13763 3.68289 4.1264 3.7496 4.15986 3.79879L5.06949 5.13615C5.10186 5.18374 5.16516 5.19868 5.21529 5.17036C5.23839 5.15734 5.26569 5.14192 5.29684 5.12436C5.32398 5.10934 5.35335 5.0916 5.38651 5.07434C5.41965 5.05705 5.45548 5.03841 5.49376 5.01848C5.53193 4.99852 5.57256 4.97728 5.61538 4.95489C5.65894 4.93401 5.70472 4.91206 5.75249 4.88916C5.80049 4.86679 5.84919 4.84118 5.90171 4.81884C5.95382 4.79596 6.0077 4.77232 6.06311 4.748C6.11796 4.72274 6.17607 4.70067 6.23485 4.6771C6.29394 4.6542 6.35312 4.62829 6.41511 4.6064C6.47683 4.58415 6.53961 4.56154 6.60312 4.53864C6.63462 4.52667 6.66704 4.51655 6.69953 4.50617C6.73195 4.49573 6.76455 4.48525 6.79726 4.47472C6.82991 4.46417 6.86269 4.45357 6.89556 4.44293C6.92861 4.43289 6.96213 4.42391 6.99542 4.4143C7.06231 4.3958 7.12874 4.37528 7.19609 4.35808C7.2635 4.3414 7.3309 4.32472 7.39803 4.30813C7.43134 4.29926 7.46516 4.29232 7.49881 4.28538C7.5324 4.27831 7.5659 4.27126 7.59928 4.26423C7.63256 4.25716 7.66572 4.25013 7.69872 4.24313C7.73179 4.23653 7.76504 4.23143 7.79785 4.22553C7.86345 4.21414 7.92825 4.20287 7.99201 4.19183C8.056 4.183 8.11893 4.17429 8.18058 4.16578Z" fill="white"/>
<path d="M1.97843 5.89513C1.95459 5.92885 1.93065 5.96273 1.90661 5.99675C1.88263 6.03074 1.85856 6.06487 1.8344 6.0991C1.81036 6.13339 1.78786 6.16895 1.76446 6.20393C1.71835 6.27436 1.67116 6.34426 1.62598 6.41547C1.58186 6.4873 1.53775 6.55912 1.49381 6.63067L1.46103 6.68424L1.42991 6.73869C1.40923 6.77488 1.38862 6.811 1.36808 6.84695C1.28411 6.98959 1.21116 7.13539 1.13703 7.27387C1.10252 7.34448 1.06857 7.41392 1.03534 7.48191C1.01886 7.51585 1.00254 7.54949 0.986445 7.58267C0.97129 7.6163 0.956337 7.64955 0.941564 7.68238C0.912152 7.74789 0.883548 7.81166 0.855865 7.87331C0.830046 7.93575 0.805079 7.99605 0.781123 8.05393C0.757639 8.11199 0.733907 8.16693 0.713678 8.22026C0.693719 8.27362 0.67477 8.32428 0.656943 8.37185C0.639206 8.41938 0.622614 8.46386 0.60728 8.50499C0.593113 8.54652 0.580113 8.58467 0.568348 8.61913C0.553081 8.66444 0.539969 8.70333 0.52926 8.73516C0.510288 8.79143 0.539139 8.85248 0.594594 8.87374L1.44125 9.19832C1.49513 9.21898 1.55582 9.19486 1.58072 9.1428C1.59307 9.11702 1.60782 9.08615 1.62477 9.0507C1.63882 9.02149 1.65436 8.98914 1.67131 8.95391C1.68932 8.91918 1.70878 8.88168 1.7296 8.84156C1.75034 8.80158 1.77239 8.75894 1.79565 8.71404C1.81909 8.66927 1.84608 8.62335 1.87286 8.57486C1.89998 8.52663 1.92825 8.47636 1.9575 8.42432C1.98833 8.37329 2.02019 8.32048 2.05297 8.26619C2.06929 8.23909 2.08584 8.21163 2.10259 8.18384C2.12021 8.15656 2.13806 8.12899 2.15609 8.10104C2.19215 8.04536 2.22899 7.98851 2.26646 7.93063C2.34608 7.81792 2.42394 7.69922 2.51193 7.58474C2.53341 7.5558 2.55499 7.52677 2.57663 7.49765L2.60908 7.45393L2.64307 7.41118C2.68833 7.35418 2.73377 7.297 2.77922 7.23981C2.82549 7.18332 2.87351 7.12829 2.92019 7.07279C2.94385 7.04524 2.96658 7.01713 2.9908 6.99035C3.01505 6.96361 3.03921 6.93694 3.06328 6.91038C3.0873 6.88384 3.11121 6.85741 3.13501 6.8311C3.15858 6.80465 3.18238 6.77867 3.2071 6.75377C3.25573 6.70342 3.30378 6.65366 3.35104 6.6047C3.39821 6.55582 3.44745 6.51047 3.49392 6.46462C3.54076 6.41911 3.58606 6.37421 3.63272 6.33305C3.67861 6.29129 3.72324 6.25068 3.76644 6.21136C3.80928 6.17183 3.85342 6.13653 3.89419 6.1011C3.93523 6.06615 3.97457 6.03265 4.01197 6.00079C4.0487 5.97171 4.08355 5.94414 4.11628 5.91819C4.14884 5.89228 4.17931 5.86801 4.20748 5.84556C4.22042 5.83487 4.23793 5.82207 4.25272 5.81082C4.2679 5.79935 4.28238 5.78844 4.29612 5.77809C4.32605 5.75548 4.35248 5.73554 4.37511 5.71848C4.42601 5.68007 4.43389 5.60683 4.39249 5.55833L3.42852 4.42903C3.38712 4.38054 3.31354 4.37683 3.26763 4.42106C3.24722 4.44073 3.22336 4.4637 3.19637 4.48972C3.18398 4.50164 3.17091 4.51424 3.15721 4.52742C3.14327 4.54095 3.13 4.55328 3.11271 4.57095C3.07966 4.60429 3.04394 4.64037 3.00575 4.6789C2.96777 4.71745 2.92733 4.75847 2.88469 4.80171C2.84507 4.84464 2.8034 4.88976 2.75993 4.93685C2.717 4.98429 2.67071 5.03209 2.62592 5.08449C2.58094 5.13662 2.53447 5.19053 2.48667 5.24592C2.43829 5.30065 2.39147 5.35945 2.34332 5.41911C2.29552 5.47908 2.24513 5.53891 2.19706 5.60232C2.14913 5.66572 2.10041 5.73018 2.05111 5.79547C2.02605 5.82782 2.00209 5.86123 1.97843 5.89513Z" fill="white"/>
<path d="M0.227997 9.85417C0.222362 9.88192 0.215761 9.91443 0.208285 9.95116C0.201437 9.98489 0.193848 10.0222 0.185586 10.0629C0.177481 10.1045 0.169556 10.1536 0.16071 10.2037C0.151998 10.2543 0.142748 10.3081 0.133004 10.3649C0.128289 10.3932 0.122901 10.4224 0.118433 10.4519C0.114459 10.4812 0.110418 10.5112 0.106264 10.5417C0.090458 10.6641 0.0696453 10.7959 0.0576561 10.9366C0.050696 11.0067 0.0435564 11.0787 0.0362596 11.1523C0.0302425 11.226 0.0262236 11.3015 0.0210373 11.378C0.00891334 11.531 0.00669062 11.6896 0.00163898 11.85L0 11.9103L0.000291873 11.9709C0.00051639 12.0113 0.000740907 12.0518 0.000965425 12.0924C0.00121239 12.133 0.00145936 12.1736 0.00168388 12.2143L0.00206556 12.2753L0.00440054 12.3363C0.00770095 12.4175 0.0110014 12.4988 0.0143018 12.5797L0.0167939 12.6402L0.0175573 12.6598L0.0186349 12.6744L0.0207903 12.7036C0.0236641 12.7425 0.0265155 12.7812 0.0293669 12.8199C0.0322182 12.8585 0.0350696 12.897 0.0378761 12.9352C0.0417602 12.9751 0.0455995 13.0149 0.0494612 13.0544C0.0533453 13.0939 0.057207 13.1331 0.0610463 13.1721C0.0629771 13.1915 0.064908 13.2109 0.0668388 13.2302C0.0692412 13.2492 0.0716435 13.2681 0.0740234 13.287C0.0835878 13.3622 0.0929951 13.4362 0.1022 13.5086C0.113314 13.5807 0.124181 13.6513 0.134733 13.7199C0.144612 13.7885 0.157342 13.8549 0.169039 13.9191C0.170005 13.9243 0.17097 13.9293 0.171913 13.9344C0.181679 13.9869 0.227346 14.0249 0.280714 14.0249H0.57912C0.642838 14.0249 0.693399 13.9713 0.68965 13.9077C0.68864 13.8907 0.687607 13.8736 0.686462 13.8563C0.682735 13.7944 0.678245 13.7306 0.676808 13.6647C0.674652 13.599 0.672452 13.5315 0.670184 13.4625C0.669758 13.3935 0.669331 13.323 0.668905 13.2513C0.668792 13.2334 0.66868 13.2154 0.668568 13.1974C0.668949 13.1797 0.669354 13.1618 0.669758 13.1439C0.670544 13.1081 0.671329 13.0721 0.672138 13.0359C0.672923 12.9997 0.673732 12.9632 0.67454 12.9266C0.676336 12.8883 0.67811 12.8498 0.679928 12.8111C0.681725 12.7724 0.683543 12.7336 0.685339 12.6946L0.686709 12.6654L0.687382 12.6507L0.687472 12.6489C0.687472 12.6442 0.687562 12.6532 0.687607 12.6516L0.687876 12.6481L0.688438 12.641L0.692973 12.5844C0.69899 12.5088 0.705029 12.4331 0.711091 12.3573L0.715716 12.3005L0.72225 12.2439C0.726606 12.2062 0.730939 12.1686 0.735272 12.131C0.739583 12.0935 0.743893 12.0561 0.748182 12.0187L0.75458 11.9629L0.762865 11.9074C0.785586 11.7599 0.804895 11.6148 0.833184 11.4759C0.846453 11.4063 0.85833 11.3378 0.871958 11.2711C0.886799 11.2047 0.901302 11.1398 0.915425 11.0766C0.941558 10.9499 0.975438 10.8322 1.00301 10.723C1.01008 10.6958 1.017 10.6691 1.02375 10.6431C1.03089 10.6174 1.03859 10.5931 1.04569 10.569C1.05999 10.5211 1.07357 10.4757 1.08633 10.433C1.09937 10.3899 1.11008 10.3514 1.12256 10.3128C1.13565 10.2734 1.14764 10.2372 1.15851 10.2046C1.17032 10.169 1.18076 10.1375 1.1897 10.1106C1.20979 10.0501 1.1747 9.98531 1.11309 9.9689L0.36502 9.76942C0.30339 9.75296 0.240705 9.79169 0.227997 9.85417Z" fill="white"/>
<path d="M8.69642 13.7317C8.9398 13.8507 9.19761 13.9071 9.45143 13.9071C10.0886 13.9071 10.7009 13.5521 10.9995 12.9411C11.0571 12.8235 11.1016 12.6937 11.1305 12.5714L12.8723 5.01152L13.5356 2.13247L13.9465 0.348967C13.9944 0.141401 13.8292 0 13.6636 0C13.5666 0 13.4695 0.0484735 13.4147 0.160485L12.5785 1.87093L11.3449 4.39419L7.90583 11.4286C7.48816 12.2829 7.84213 13.314 8.69642 13.7317ZM9.51528 11.2972C9.98136 11.2972 10.3592 11.675 10.3592 12.1411C10.3592 12.6071 9.98136 12.985 9.51528 12.985C9.0492 12.985 8.67136 12.6071 8.67136 12.1411C8.67136 11.6749 9.0492 11.2972 9.51528 11.2972Z" fill="white"/>
</svg>
