<svg width="24" height="24" viewBox="0 0 24 24" fill="none" xmlns="http://www.w3.org/2000/svg">
<circle cx="12" cy="12" r="12" fill="#E7E7E7"/>
<path d="M6.21196 12.2745L8.977 13.361L10.0472 16.9847C10.1157 17.2168 10.3853 17.3026 10.5642 17.1486L12.1055 15.8257C12.267 15.6871 12.4972 15.6802 12.666 15.8092L15.4459 17.9342C15.6373 18.0806 15.9085 17.9702 15.9565 17.7267L17.9929 7.41353C18.0453 7.14754 17.7971 6.92565 17.5565 7.0236L6.20872 11.6325C5.92868 11.7462 5.93112 12.1637 6.21196 12.2745ZM9.87476 12.7826L15.2787 9.27848C15.3758 9.21569 15.4757 9.35394 15.3923 9.43539L10.9325 13.8C10.7758 13.9536 10.6746 14.1592 10.646 14.3824L10.4941 15.5677C10.474 15.726 10.2628 15.7417 10.2213 15.5885L9.63704 13.4271C9.57012 13.1805 9.66764 12.9172 9.87476 12.7826Z" fill="#757575"/>
</svg>
