<svg width="39" height="35" viewBox="0 0 39 35" fill="none" xmlns="http://www.w3.org/2000/svg">
<path d="M18.243 33.1027C17.8516 33.2955 17.4785 33.4532 17.0994 33.5992C15.8824 34.084 14.6287 34.4403 13.3322 34.6681C12.5983 34.8024 11.8583 34.8959 11.1061 34.9368C10.7637 34.9543 10.4151 34.9776 10.0726 34.9952C9.65673 35.0127 9.24088 34.9776 8.82502 34.9543C8.32354 34.9251 7.82818 34.8784 7.3267 34.8141C6.32375 34.6856 5.33914 34.4753 4.37288 34.195C2.8868 33.7627 1.48634 33.1436 0.147028 32.396C0.0430635 32.3375 0.000254505 32.2791 0.000254505 32.1565C-0.0119766 29.6682 0.416113 27.2559 1.40072 24.9488C2.19574 23.0855 3.28431 21.3917 4.67255 19.873C6.05467 18.3602 7.65083 17.0927 9.46715 16.0822C11.1367 15.1594 12.9102 14.4994 14.7938 14.108C16.4083 13.7692 18.0473 13.6407 19.6985 13.7167C21.7289 13.8043 23.6981 14.2015 25.6 14.8965C25.7468 14.9491 25.7651 15.0484 25.7713 15.1594C25.8202 15.6675 25.8752 16.1815 25.8691 16.6955C25.8691 16.9175 25.8691 17.1395 25.8691 17.3731C25.7407 17.3556 25.6428 17.303 25.5389 17.2563C24.2179 16.6955 22.8358 16.31 21.4109 16.0939C20.3284 15.9304 19.2337 15.8603 18.139 15.907C16.2249 15.983 14.378 16.3685 12.6044 17.0694C10.6658 17.8404 8.9351 18.9151 7.42455 20.3111C5.05171 22.5189 3.48613 25.1649 2.73391 28.2489C2.55045 28.9965 2.42813 29.7559 2.37309 30.5269C2.36698 30.6554 2.35475 30.7839 2.3364 30.9124C2.32417 31.0175 2.37309 31.0701 2.46483 31.1168C2.90515 31.3271 3.3577 31.5198 3.81637 31.695C5.00279 32.1448 6.23202 32.4485 7.49182 32.6238C8.04222 32.6997 8.59874 32.7406 9.15526 32.7698C9.77905 32.8048 10.3967 32.7873 11.0205 32.7464C12.635 32.6354 14.2067 32.3142 15.7173 31.7651C15.8946 31.7009 16.023 31.7126 16.1759 31.8235C16.7997 32.2791 17.4602 32.6822 18.1451 33.056C18.1757 33.056 18.1941 33.0735 18.243 33.1027Z" fill="white"/>
<path d="M19.6518 29.3454C19.6885 29.28 19.7556 29.2562 19.8105 29.2146C21.8183 27.7699 23.4294 25.9804 24.6255 23.8401C25.4311 22.4013 25.9864 20.8734 26.3159 19.2681C26.4624 18.5368 26.5601 17.7937 26.5967 17.0446C26.615 16.7176 26.6272 16.3846 26.6211 16.0577C26.6028 13.9471 26.1817 11.9138 25.3578 9.96372C24.4546 7.82935 23.1487 5.96847 21.4277 4.38107C20.732 3.74492 19.9875 3.17417 19.1941 2.65099C19.066 2.56775 18.9805 2.57964 18.8585 2.65693C16.7836 4.00057 15.0993 5.71282 13.7994 7.78773C12.9023 9.22055 12.2493 10.7604 11.8404 12.3894C11.7428 12.7699 11.6574 13.1504 11.6024 13.5368C11.5841 13.6558 11.5414 13.739 11.4072 13.7925C10.6809 14.0838 9.98523 14.4286 9.30784 14.8091C9.25291 14.8389 9.21019 14.8864 9.13086 14.8745C9.14917 14.4822 9.19189 14.0957 9.24681 13.7093C9.43599 12.4013 9.75333 11.1231 10.2171 9.88048C10.9983 7.79368 12.1273 5.90307 13.6041 4.2146C15.0687 2.54992 16.7836 1.18844 18.7364 0.0945039C18.95 -0.0244022 19.0965 -0.0362928 19.3162 0.0885586C20.9395 1.00414 22.4102 2.09807 23.704 3.42388C24.8696 4.61888 25.8521 5.94469 26.6577 7.40129C27.5548 9.03625 28.1895 10.7604 28.5556 12.5797C28.7204 13.4001 28.8302 14.2324 28.8791 15.0707C28.9157 15.6355 28.9218 16.1944 28.9035 16.7592C28.8546 18.3407 28.5983 19.8864 28.1345 21.3965C27.3412 23.9828 26.023 26.2836 24.1983 28.3109C23.5331 29.0482 22.8069 29.7319 22.0258 30.3621C21.9403 30.4275 21.8671 30.4572 21.7634 30.4156C21.0616 30.1243 20.3781 29.7973 19.7312 29.4108C19.6946 29.3989 19.664 29.387 19.6518 29.3454Z" fill="white"/>
<path d="M11.2888 18.2213C11.3695 18.8616 11.4565 19.4723 11.5931 20.0771C11.9409 21.6424 12.5247 23.1247 13.3382 24.518C14.1953 25.9825 15.2634 27.2929 16.549 28.4313C17.9153 29.6467 19.4555 30.6132 21.1571 31.3365C22.3682 31.8524 23.6227 32.2259 24.9269 32.4631C25.5479 32.5757 26.1689 32.6469 26.8024 32.6943C27.4483 32.7417 28.0942 32.7477 28.74 32.7239C30.4355 32.6647 32.0813 32.3504 33.6773 31.8049C34.2859 31.5974 34.8759 31.3484 35.4597 31.0875C35.6336 31.0104 35.6833 30.9156 35.6647 30.7436C35.5963 30.0618 35.5156 29.3858 35.3852 28.7099C35.0623 27.1031 34.4971 25.5793 33.6897 24.1445C33.0377 22.9883 32.2489 21.9211 31.3236 20.9487C30.8081 20.4032 30.2492 19.8992 29.6592 19.4308C29.5847 19.3715 29.5474 19.3123 29.5598 19.2233C29.6778 18.3992 29.7337 17.575 29.7337 16.739C29.8331 16.739 29.8952 16.8042 29.9573 16.8457C30.9758 17.5276 31.9136 18.3043 32.7706 19.164C34.1121 20.504 35.2051 22.0041 36.0621 23.6583C36.8757 25.2414 37.4408 26.9015 37.7514 28.6388C37.8818 29.3858 37.9749 30.1448 38.0122 30.9037C38.037 31.3069 38.0308 31.7101 38.0432 32.1132C38.0495 32.2318 38.0122 32.297 37.9004 32.3563C35.9379 33.4592 33.8512 34.2596 31.6093 34.6687C30.833 34.811 30.0567 34.9059 29.2679 34.9592C28.5289 35.0067 27.7899 35.0126 27.0508 34.977C24.9206 34.8703 22.865 34.4434 20.8839 33.6845C18.1948 32.6528 15.8783 31.1172 13.922 29.0775C12.8228 27.9332 11.8912 26.6644 11.1273 25.2947C10.202 23.6346 9.56228 21.8736 9.20829 20.0238C9.10271 19.4664 9.0344 19.6384 9.49397 19.3063C9.98459 18.9506 10.5063 18.6363 11.0466 18.3458C11.1149 18.3043 11.1894 18.2687 11.2888 18.2213Z" fill="white"/>
<path d="M19.0001 18C16.7916 17.9942 14.983 19.8132 15.0004 21.9913C14.9714 24.1405 16.7452 25.9942 18.9828 26C21.174 26.0058 22.9826 24.2447 22.9999 22.0203C23.0115 19.8074 21.2087 18.0058 19.0001 18ZM18.9886 23.8219C17.9973 23.8277 17.1742 22.9993 17.1742 22.0087C17.1742 21.0007 17.9915 20.1781 19.0001 20.1839C19.945 20.1897 20.8145 20.9196 20.8145 21.9971C20.8203 23.063 19.9624 23.8161 18.9886 23.8219Z" fill="white"/>
</svg>
