<?xml version="1.0" encoding="utf-8"?>
<!-- Generator: Adobe Illustrator 21.0.0, SVG Export Plug-In . SVG Version: 6.00 Build 0)  -->
<svg version="1.1" xmlns="http://www.w3.org/2000/svg" xmlns:xlink="http://www.w3.org/1999/xlink" x="0px" y="0px"
	 viewBox="0 0 615.1 581.7" style="enable-background:new 0 0 615.1 581.7;" xml:space="preserve">
<style type="text/css">
	.st0{fill:url(#SVGID_1_);}
	.st1{fill:url(#SVGID_2_);}
	.st2{fill:url(#SVGID_3_);}
	.st3{fill:url(#SVGID_4_);}
</style>
<g id="Layer_1">
	<g>
		<linearGradient id="SVGID_1_" gradientUnits="userSpaceOnUse" x1="211.5601" y1="581.745" x2="211.5601" y2="216.9913">
			<stop  offset="0" style="stop-color:#369137"/>
			<stop  offset="1" style="stop-color:#93D039"/>
		</linearGradient>
		<path class="st0" d="M298.3,549.2c-6.4,3.3-12.5,6-18.7,8.5c-19.9,8.3-40.4,14.4-61.6,18.3c-12,2.3-24.1,3.9-36.4,4.6
			c-5.6,0.3-11.3,0.7-16.9,1c-6.8,0.3-13.6-0.3-20.4-0.7c-8.2-0.5-16.3-1.3-24.5-2.4c-16.4-2.2-32.5-5.8-48.3-10.6
			c-24.3-7.4-47.2-18-69.1-30.8c-1.7-1-2.4-2-2.4-4.1c-0.2-42.6,6.8-83.9,22.9-123.4c13-31.9,30.8-60.9,53.5-86.9
			c22.6-25.9,48.7-47.6,78.4-64.9c27.3-15.8,56.3-27.1,87.1-33.8c26.4-5.8,53.2-8,80.2-6.7c33.2,1.5,65.4,8.3,96.5,20.2
			c2.4,0.9,2.7,2.6,2.8,4.5c0.8,8.7,1.7,17.5,1.6,26.3c0,3.8,0,7.6,0,11.6c-2.1-0.3-3.7-1.2-5.4-2c-21.6-9.6-44.2-16.2-67.5-19.9
			c-17.7-2.8-35.6-4-53.5-3.2c-31.3,1.3-61.5,7.9-90.5,19.9c-31.7,13.2-60,31.6-84.7,55.5C82.6,368,57,413.3,44.7,466.1
			c-3,12.8-5,25.8-5.9,39c-0.1,2.2-0.3,4.4-0.6,6.6c-0.2,1.8,0.6,2.7,2.1,3.5c7.2,3.6,14.6,6.9,22.1,9.9
			c19.4,7.7,39.5,12.9,60.1,15.9c9,1.3,18.1,2,27.2,2.5c10.2,0.6,20.3,0.3,30.5-0.4c26.4-1.9,52.1-7.4,76.8-16.8
			c2.9-1.1,5-0.9,7.5,1c10.2,7.8,21,14.7,32.2,21.1C297.2,548.4,297.5,548.7,298.3,549.2z"/>
		<linearGradient id="SVGID_2_" gradientUnits="userSpaceOnUse" x1="308.8271" y1="511.8552" x2="308.8271" y2="-1.818989e-12">
			<stop  offset="0" style="stop-color:#369137"/>
			<stop  offset="1" style="stop-color:#93D039"/>
		</linearGradient>
		<path class="st1" d="M319.2,493.4c0.6-1.1,1.7-1.5,2.6-2.2c32.9-24.3,59.3-54.4,78.9-90.4c13.2-24.2,22.3-49.9,27.7-76.9
			c2.4-12.3,4-24.8,4.6-37.4c0.3-5.5,0.5-11.1,0.4-16.6c-0.3-35.5-7.2-69.7-20.7-102.5c-14.8-35.9-36.2-67.2-64.4-93.9
			c-11.4-10.7-23.6-20.3-36.6-29.1c-2.1-1.4-3.5-1.2-5.5,0.1c-34,22.6-61.6,51.4-82.9,86.3c-14.7,24.1-25.4,50-32.1,77.4
			c-1.6,6.4-3,12.8-3.9,19.3c-0.3,2-1,3.4-3.2,4.3c-11.9,4.9-23.3,10.7-34.4,17.1c-0.9,0.5-1.6,1.3-2.9,1.1c0.3-6.6,1-13.1,1.9-19.6
			c3.1-22,8.3-43.5,15.9-64.4c12.8-35.1,31.3-66.9,55.5-95.3c24-28,52.1-50.9,84.1-69.3c3.5-2,5.9-2.2,9.5-0.1
			c26.6,15.4,50.7,33.8,71.9,56.1c19.1,20.1,35.2,42.4,48.4,66.9c14.7,27.5,25.1,56.5,31.1,87.1c2.7,13.8,4.5,27.8,5.3,41.9
			c0.6,9.5,0.7,18.9,0.4,28.4c-0.8,26.6-5,52.6-12.6,78c-13,43.5-34.6,82.2-64.5,116.3c-10.9,12.4-22.8,23.9-35.6,34.5
			c-1.4,1.1-2.6,1.6-4.3,0.9c-11.5-4.9-22.7-10.4-33.3-16.9C319.9,494.3,319.4,494.1,319.2,493.4z"/>
		<linearGradient id="SVGID_3_" gradientUnits="userSpaceOnUse" x1="382.3495" y1="579.3344" x2="382.3495" y2="271.229">
			<stop  offset="0" style="stop-color:#369137"/>
			<stop  offset="1" style="stop-color:#93D039"/>
		</linearGradient>
		<path class="st2" d="M184.4,296.3c1.3,10.8,2.7,21.1,4.9,31.3c5.6,26.4,15,51.4,28.1,74.9c13.8,24.7,31,46.8,51.7,66
			c22,20.5,46.8,36.8,74.2,49c19.5,8.7,39.7,15,60.7,19c10,1.9,20,3.1,30.2,3.9c10.4,0.8,20.8,0.9,31.2,0.5
			c27.3-1,53.8-6.3,79.5-15.5c9.8-3.5,19.3-7.7,28.7-12.1c2.8-1.3,3.6-2.9,3.3-5.8c-1.1-11.5-2.4-22.9-4.5-34.3
			c-5.2-27.1-14.3-52.8-27.3-77c-10.5-19.5-23.2-37.5-38.1-53.9c-8.3-9.2-17.3-17.7-26.8-25.6c-1.2-1-1.8-2-1.6-3.5
			c1.9-13.9,2.8-27.8,2.8-41.9c1.6,0,2.6,1.1,3.6,1.8c16.4,11.5,31.5,24.6,45.3,39.1c21.6,22.6,39.2,47.9,53,75.8
			c13.1,26.7,22.2,54.7,27.2,84c2.1,12.6,3.6,25.4,4.2,38.2c0.4,6.8,0.3,13.6,0.5,20.4c0.1,2-0.5,3.1-2.3,4.1
			c-31.6,18.6-65.2,32.1-101.3,39c-12.5,2.4-25,4-37.7,4.9c-11.9,0.8-23.8,0.9-35.7,0.3c-34.3-1.8-67.4-9-99.3-21.8
			c-43.3-17.4-80.6-43.3-112.1-77.7c-17.7-19.3-32.7-40.7-45-63.8c-14.9-28-25.2-57.7-30.9-88.9c-1.7-9.4-2.8-6.5,4.6-12.1
			c7.9-6,16.3-11.3,25-16.2C181.6,297.7,182.8,297.1,184.4,296.3z"/>
		<linearGradient id="SVGID_4_" gradientUnits="userSpaceOnUse" x1="308.8525" y1="425.8932" x2="308.8525" y2="287.8427">
			<stop  offset="0" style="stop-color:#369137"/>
			<stop  offset="1" style="stop-color:#93D039"/>
		</linearGradient>
		<path class="st3" d="M308.9,287.8c-38.1-0.1-69.3,31.3-69,68.9c-0.5,37.1,30.1,69.1,68.7,69.2c37.8,0.1,69-30.3,69.3-68.7
			C378.1,319,347,287.9,308.9,287.8z M308.7,388.3c-17.1,0.1-31.3-14.2-31.3-31.3c0-17.4,14.1-31.6,31.5-31.5
			c16.3,0.1,31.3,12.7,31.3,31.3C340.3,375.2,325.5,388.2,308.7,388.3z"/>
	</g>
</g>
<g id="Layer_2">
</g>
</svg>
