<svg width="23" height="27" viewBox="0 0 23 27" fill="none" xmlns="http://www.w3.org/2000/svg">
<path d="M11.8063 16.2455C11.7149 16.1455 11.5994 16.0707 11.48 16.0084C11.22 15.8728 10.9356 15.7905 10.6533 15.7163V17.904C11.1116 17.8522 11.6376 17.6859 11.8782 17.2581C11.9931 17.0537 12.0159 16.8027 11.9692 16.5752C11.9438 16.4519 11.8914 16.3388 11.8063 16.2455Z" fill="#3A3C3F"/>
<path d="M11.877 17.2609C11.8776 17.2597 11.878 17.259 11.8787 17.2578C11.8781 17.2588 11.8775 17.2598 11.877 17.2609Z" fill="black"/>
<path d="M8.50324 12.7485C8.42446 12.8635 8.37503 12.9942 8.36139 13.1331C8.34775 13.2723 8.35541 13.4272 8.40829 13.5582C8.45864 13.6831 8.56413 13.7753 8.673 13.8495C8.79517 13.9326 8.92954 13.9975 9.06639 14.0525C9.18119 14.0987 9.31032 14.1429 9.44953 14.1856V12.2061C9.09786 12.2811 8.71363 12.4413 8.50324 12.7485Z" fill="#3A3C3F"/>
<path d="M11.8865 17.2422C11.8838 17.2471 11.8808 17.2521 11.8779 17.2575C11.8813 17.2513 11.884 17.2467 11.8865 17.2422Z" fill="black"/>
<path d="M11.8984 17.2208C11.8991 17.2194 11.8993 17.2193 11.8984 17.2208V17.2208Z" fill="black"/>
<path d="M11.4237 5.32119C13.2841 3.75836 14.5272 0.237539 13.7622 0.083546C12.7457 -0.121144 10.5384 0.776397 9.47145 0.934533C7.95823 1.11724 6.31012 -0.706385 5.38501 0.310104C4.63283 1.13658 5.92427 4.14219 7.94476 5.45159C1.91673 8.41428 -6.55609 23.2872 8.22518 24.3664C28.6776 25.8596 18.4363 8.20826 11.4237 5.32119ZM13.1802 17.0507C13.1173 17.6305 12.81 18.1549 12.3506 18.5109C11.8656 18.8867 11.2573 19.0616 10.6529 19.1105V19.7512C10.6529 19.9226 10.5781 20.0884 10.4497 20.2019C10.2734 20.358 10.0142 20.3965 9.8001 20.2978C9.58873 20.2006 9.44987 19.9838 9.44987 19.7512V19.051C9.34623 19.0313 9.24334 19.0079 9.14166 18.98C8.57679 18.8248 8.05283 18.5223 7.6701 18.0747C7.47945 17.8516 7.32402 17.5984 7.21652 17.3251C7.18844 17.2537 7.16341 17.181 7.14148 17.1074C7.12163 17.0409 7.10114 16.9732 7.09406 16.9038C7.08215 16.7874 7.10523 16.6686 7.15949 16.5649C7.27102 16.3516 7.50603 16.2227 7.746 16.2441C7.98217 16.2651 8.18916 16.429 8.26351 16.6541C8.28641 16.7234 8.30195 16.7945 8.32767 16.8631C8.35317 16.9312 8.38395 16.9975 8.42015 17.0605C8.49162 17.1847 8.58116 17.2992 8.68428 17.3986C8.89686 17.6034 9.16761 17.7365 9.44987 17.8157V15.4355C8.89795 15.2926 8.32825 15.1081 7.87249 14.7537C7.65099 14.5814 7.46305 14.3673 7.33996 14.114C7.21008 13.8465 7.15627 13.5486 7.15408 13.2527C7.15184 12.9523 7.20892 12.6545 7.33426 12.3807C7.45165 12.1244 7.62067 11.8943 7.82789 11.7035C8.27099 11.2957 8.85957 11.0682 9.44993 10.9847V10.9323V10.3196C9.44993 10.1482 9.5248 9.9824 9.65313 9.86892C9.82956 9.71291 10.0886 9.67436 10.3028 9.77299C10.5141 9.8703 10.653 10.087 10.653 10.3196V10.9323V10.9811C10.7316 10.9909 10.8101 11.0028 10.8881 11.017C11.4678 11.1219 12.0348 11.3613 12.4588 11.7792C12.6596 11.9772 12.824 12.213 12.9396 12.4703C12.9719 12.542 13.0002 12.6155 13.0246 12.6903C13.0474 12.7601 13.0703 12.832 13.0812 12.9049C13.0986 13.0212 13.0808 13.1413 13.0311 13.2477C12.9291 13.4657 12.7004 13.6045 12.4598 13.5942C12.2234 13.5839 12.0092 13.43 11.9246 13.209C11.8994 13.1433 11.8868 13.0737 11.861 13.0082C11.8351 12.9418 11.8015 12.8785 11.7628 12.8187C11.6875 12.7025 11.5899 12.6028 11.4786 12.5207C11.2375 12.3426 10.945 12.2499 10.6528 12.198V14.4758C11.0001 14.559 11.3477 14.6497 11.6804 14.7809C12.1833 14.9792 12.6598 15.2832 12.9343 15.7627C12.8917 15.688 12.8503 15.6152 12.9358 15.7652C13.0197 15.9125 12.9796 15.8423 12.9375 15.7685C13.1559 16.1533 13.2276 16.6135 13.1802 17.0507Z" fill="#3A3C3F"/>
<path d="M11.8679 17.2729C11.8646 17.2789 11.8617 17.2842 11.8594 17.2881C11.8613 17.2847 11.8643 17.2795 11.8679 17.2729Z" fill="black"/>
<path d="M21.8721 21.669C21.8721 23.99 19.9905 25.8716 17.6694 25.8716C15.3484 25.8716 13.4668 23.99 13.4668 21.669C13.4668 19.3479 15.3484 17.4663 17.6694 17.4663C19.9905 17.4663 21.8721 19.3479 21.8721 21.669Z" fill="white"/>
<path d="M22.3392 21.6696C22.3392 24.2486 20.2486 26.3392 17.6696 26.3392C15.0907 26.3392 13 24.2486 13 21.6696C13 19.0907 15.0907 17 17.6696 17C20.2486 17 22.3392 19.0907 22.3392 21.6696Z" fill="#3A3C3F"/>
<path fill-rule="evenodd" clip-rule="evenodd" d="M17.6696 25.522C19.7972 25.522 21.522 23.7972 21.522 21.6696C21.522 19.542 19.7972 17.8172 17.6696 17.8172C15.542 17.8172 13.8172 19.542 13.8172 21.6696C13.8172 23.7972 15.542 25.522 17.6696 25.522ZM17.6696 26.3392C20.2486 26.3392 22.3392 24.2486 22.3392 21.6696C22.3392 19.0907 20.2486 17 17.6696 17C15.0907 17 13 19.0907 13 21.6696C13 24.2486 15.0907 26.3392 17.6696 26.3392Z" fill="#E5E5E5"/>
<path d="M19.42 22.2229L18.2303 21.7951V19.4222C18.2303 19.2751 18.1762 19.1341 18.0799 19.0301C17.9836 18.9261 17.8529 18.8677 17.7167 18.8677C17.5805 18.8677 17.4499 18.9261 17.3536 19.0301C17.2572 19.1341 17.2031 19.2751 17.2031 19.4222V22.1948C17.2032 22.3112 17.2372 22.4246 17.3001 22.519C17.3631 22.6134 17.452 22.6841 17.5542 22.7211L19.095 23.2756C19.1474 23.2945 19.2023 23.304 19.2575 23.3038C19.3795 23.3039 19.4975 23.257 19.5905 23.1717C19.6834 23.0863 19.7452 22.9681 19.7648 22.838C19.7843 22.708 19.7604 22.5747 19.6972 22.462C19.634 22.3493 19.5358 22.2645 19.42 22.2229V22.2229Z" fill="#E5E5E5"/>
<ellipse cx="9.5" cy="15" rx="5.5" ry="6" fill="#3A3C3F"/>
<path d="M6.03977 12H13.5V15.7062L9.32965 12.6328H8.40291L13.5 16.3842C13.2365 18.0898 12.1978 19.0569 11.2041 19.5562C10.2968 20.012 9.20358 19.9672 8.3054 19.4938C6.16829 18.3675 5.87127 16.101 6.03977 14.9379L11.4148 18.7797L11.8319 18.3729L6.03977 14.1695V12Z" fill="#F3F3F3"/>
</svg>
