<svg width="115" height="134" viewBox="0 0 115 134" fill="none" xmlns="http://www.w3.org/2000/svg">
<path d="M57.6168 72.1452C57.2562 71.7503 56.7999 71.4549 56.3285 71.2088C55.3019 70.6735 54.1792 70.3488 53.0645 70.0557V78.6936C54.8738 78.4891 56.951 77.8324 57.901 76.1433C58.3546 75.3364 58.4448 74.3451 58.26 73.4469C58.1598 72.9602 57.9528 72.5135 57.6168 72.1452Z" fill="#3A3C3F"/>
<path d="M57.8955 76.1541C57.898 76.1499 57.8995 76.1472 57.9022 76.1426C57.8999 76.1464 57.8977 76.1502 57.8955 76.1541Z" fill="black"/>
<path d="M44.5747 58.3371C44.2636 58.7913 44.0685 59.3073 44.0146 59.8558C43.9607 60.4054 43.991 61.0169 44.1998 61.5343C44.3986 62.0273 44.8151 62.3913 45.245 62.6844C45.7274 63.0126 46.2579 63.2689 46.7983 63.4861C47.2516 63.6685 47.7614 63.843 48.3111 64.0116V56.1953C46.9225 56.4916 45.4054 57.1242 44.5747 58.3371Z" fill="#3A3C3F"/>
<path d="M57.933 76.0806C57.9223 76.0996 57.9107 76.1195 57.8994 76.1404C57.9127 76.116 57.9231 76.0981 57.933 76.0806Z" fill="black"/>
<path d="M57.9805 75.9952C57.9829 75.9907 57.9833 75.9903 57.9805 75.9952V75.9952Z" fill="black"/>
<path d="M56.1063 29.0106C63.452 22.8398 68.3604 8.93792 65.3398 8.32988C61.3262 7.52166 52.6105 11.0656 48.3979 11.69C42.4229 12.4114 35.9154 5.21085 32.2626 9.22444C29.2927 12.4878 34.3919 24.3554 42.3698 29.5255C18.5682 41.2236 -14.8866 99.9492 43.477 104.21C124.233 110.106 83.7956 40.4102 56.1063 29.0106ZM63.0417 75.3244C62.7933 77.6138 61.58 79.6843 59.7663 81.0898C57.8513 82.574 55.4494 83.2643 53.0629 83.4577V85.9873C53.0629 86.6642 52.7673 87.3188 52.2606 87.7669C51.5642 88.3831 50.5408 88.5351 49.6955 88.1457C48.861 87.7617 48.3127 86.9057 48.3127 85.9873V83.2225C47.9035 83.1448 47.4972 83.0523 47.0957 82.9421C44.8653 82.3293 42.7965 81.1348 41.2853 79.3675C40.5325 78.4866 39.9188 77.4871 39.4943 76.408C39.3834 76.126 39.2846 75.8388 39.198 75.5484C39.1196 75.2855 39.0387 75.0183 39.0108 74.7443C38.9638 74.2846 39.0549 73.8157 39.2691 73.4062C39.7095 72.5639 40.6375 72.0552 41.585 72.1397C42.5175 72.2224 43.3348 72.8695 43.6283 73.7584C43.7188 74.0322 43.7801 74.3128 43.8817 74.5837C43.9823 74.8527 44.1039 75.1142 44.2468 75.3632C44.529 75.8536 44.8826 76.3057 45.2898 76.6982C46.1291 77.5068 47.1982 78.0324 48.3127 78.345V68.9468C46.1334 68.3826 43.884 67.6539 42.0844 66.2547C41.2098 65.5744 40.4677 64.7292 39.9817 63.7287C39.4689 62.6729 39.2564 61.4965 39.2478 60.3282C39.2389 59.1419 39.4643 57.966 39.9592 56.8851C40.4227 55.8731 41.0901 54.9645 41.9083 54.2112C43.6579 52.6009 45.9819 51.7027 48.3129 51.3728V51.166V48.7468C48.3129 48.0702 48.6085 47.4153 49.1152 46.9673C49.8119 46.3513 50.8348 46.199 51.6803 46.5885C52.5146 46.9727 53.0631 47.8284 53.0631 48.7468V51.166V51.3585C53.3737 51.3976 53.6834 51.4444 53.9916 51.5003C56.2806 51.9145 58.5193 52.8597 60.1933 54.51C60.9862 55.2917 61.6354 56.223 62.0919 57.2387C62.2194 57.522 62.3309 57.812 62.4275 58.1076C62.5175 58.3832 62.6079 58.667 62.6509 58.9546C62.7195 59.4139 62.6495 59.8883 62.4529 60.3084C62.0503 61.1691 61.1473 61.7172 60.1973 61.6765C59.2639 61.6358 58.4182 61.028 58.084 60.1555C57.9845 59.896 57.9347 59.6213 57.8331 59.3625C57.7307 59.1005 57.598 58.8506 57.445 58.6145C57.1478 58.1555 56.7627 57.762 56.323 57.4377C55.371 56.7347 54.2163 56.3684 53.0625 56.1637V65.1575C54.4337 65.4858 55.8061 65.8439 57.1199 66.362C59.1056 67.145 60.9872 68.3456 62.071 70.2388C61.9028 69.9438 61.7393 69.6564 62.0767 70.2485C62.408 70.8302 62.2498 70.553 62.0835 70.2615C62.9458 71.7811 63.2291 73.5982 63.0417 75.3244Z" fill="#142D51"/>
<path d="M57.8595 76.2017C57.8465 76.225 57.8351 76.2455 57.8262 76.2611C57.8339 76.2476 57.8454 76.2273 57.8595 76.2017Z" fill="black"/>
<path d="M97.362 93.5594C97.362 102.724 89.9326 110.154 80.7679 110.154C71.6033 110.154 64.1738 102.724 64.1738 93.5594C64.1738 84.3948 71.6033 76.9653 80.7679 76.9653C89.9326 76.9653 97.362 84.3948 97.362 93.5594Z" fill="white"/>
<path d="M99.2058 93.5619C99.2058 103.745 90.9509 112 80.768 112C70.585 112 62.3301 103.745 62.3301 93.5619C62.3301 83.3789 70.585 75.124 80.768 75.124C90.9509 75.124 99.2058 83.3789 99.2058 93.5619Z" fill="#142D51"/>
<path fill-rule="evenodd" clip-rule="evenodd" d="M80.768 108.773C89.1689 108.773 95.9792 101.963 95.9792 93.5619C95.9792 85.161 89.1689 78.3507 80.768 78.3507C72.367 78.3507 65.5567 85.161 65.5567 93.5619C65.5567 101.963 72.367 108.773 80.768 108.773ZM80.768 112C90.9509 112 99.2058 103.745 99.2058 93.5619C99.2058 83.3789 90.9509 75.124 80.768 75.124C70.585 75.124 62.3301 83.3789 62.3301 93.5619C62.3301 103.745 70.585 112 80.768 112Z" fill="#139DEE"/>
<path d="M87.679 95.7467L82.9816 94.0575V84.688C82.9816 84.1073 82.7679 83.5504 82.3876 83.1398C82.0073 82.7292 81.4915 82.4985 80.9537 82.4985C80.4159 82.4985 79.9 82.7292 79.5197 83.1398C79.1394 83.5504 78.9258 84.1073 78.9258 84.688V95.6355C78.9261 96.0951 79.0601 96.5429 79.3089 96.9158C79.5576 97.2887 79.9085 97.5678 80.3121 97.7138L86.3958 99.9033C86.6027 99.9777 86.8194 100.015 87.0374 100.015C87.5192 100.015 87.9853 99.8298 88.3523 99.4928C88.7193 99.1559 88.9632 98.6889 89.0404 98.1754C89.1176 97.662 89.023 97.1356 88.7736 96.6906C88.5241 96.2456 88.1361 95.911 87.679 95.7467V95.7467Z" fill="#139DEE"/>
<ellipse cx="48.5106" cy="67.227" rx="21.7167" ry="23.6909" fill="#142D51"/>
<path d="M34.8484 55.3818H64.305V70.0158L47.8385 57.8803H44.1793L64.305 72.6927C62.8666 82.0045 55.5763 85.7413 50.9944 86.7289C50.0019 86.9428 48.9712 86.8782 47.9922 86.6091C35.7394 83.242 34.0856 72.248 34.8484 66.9819L56.0718 82.1512L57.7185 80.5451L34.8484 63.948V55.3818Z" fill="#139DEE"/>
</svg>
