<svg width="24" height="24" viewBox="0 0 24 24" fill="none" xmlns="http://www.w3.org/2000/svg">
<circle cx="12" cy="12" r="12" fill="#E7E7E7"/>
<path d="M18 9.06484C17.5583 9.24554 17.0844 9.36809 16.5865 9.4228C17.0949 9.14169 17.4841 8.69582 17.6685 8.16616C17.1916 8.42648 16.6652 8.61551 16.1043 8.71798C15.6552 8.27557 15.0163 8 14.3077 8C12.9482 8 11.8459 9.01777 11.8459 10.2723C11.8459 10.4503 11.8676 10.624 11.9096 10.7902C9.86401 10.6954 8.0501 9.79044 6.83608 8.4154C6.62386 8.75051 6.50314 9.14099 6.50314 9.5578C6.50314 10.3464 6.93806 11.0422 7.59794 11.4493C7.19451 11.4369 6.81508 11.3344 6.4829 11.1641V11.1925C6.4829 12.2933 7.33175 13.2121 8.45728 13.4212C8.25106 13.4724 8.03361 13.5008 7.80865 13.5008C7.64969 13.5008 7.49596 13.4863 7.34524 13.4586C7.65867 14.3621 8.56751 15.0191 9.64432 15.0371C8.80222 15.6464 7.74041 16.0085 6.58714 16.0085C6.38843 16.0085 6.19271 15.9975 6 15.9774C7.08955 16.6234 8.38306 17 9.7733 17C14.3017 17 16.777 13.5368 16.777 10.5334L16.7687 10.2391C17.2524 9.9206 17.6708 9.52042 18 9.06484Z" fill="#757575"/>
</svg>
