<svg width="88" height="97" viewBox="0 0 88 97" fill="none" xmlns="http://www.w3.org/2000/svg">
<path d="M41 14C18.368 14 0 32.592 0 55.5C0 78.408 18.368 97 41 97C63.632 97 82 78.408 82 55.5C82 32.592 63.632 14 41 14ZM36.9 88.4095C20.705 86.376 8.2 72.432 8.2 55.5C8.2 52.927 8.528 50.4785 9.061 48.0715L28.7 67.95V72.1C28.7 76.665 32.39 80.4 36.9 80.4V88.4095ZM65.19 77.8685C64.124 74.507 61.09 72.1 57.4 72.1H53.3V59.65C53.3 57.3675 51.455 55.5 49.2 55.5H24.6V47.2H32.8C35.055 47.2 36.9 45.3325 36.9 43.05V34.75H45.1C49.61 34.75 53.3 31.015 53.3 26.45V24.7485C65.313 29.687 73.8 41.5975 73.8 55.5C73.8 64.132 70.52 71.9755 65.19 77.8685Z" fill="black"/>
<circle cx="68" cy="20" r="18" fill="white"/>
<circle cx="68" cy="20" r="18.25" fill="white" stroke="black" stroke-width="3.5"/>
<path d="M75.4948 22.3706L70.3994 20.5383V10.375C70.3994 9.74511 70.1677 9.14102 69.7551 8.69562C69.3426 8.25022 68.7831 8 68.1997 8C67.6163 8 67.0568 8.25022 66.6443 8.69562C66.2318 9.14102 66 9.74511 66 10.375V22.25C66.0004 22.7485 66.1457 23.2342 66.4155 23.6387C66.6853 24.0432 67.066 24.346 67.5037 24.5044L74.1029 26.8794C74.3273 26.96 74.5623 27.0008 74.7989 27C75.3214 27.0002 75.827 26.7996 76.2251 26.4341C76.6232 26.0686 76.8878 25.562 76.9716 25.0051C77.0553 24.4481 76.9527 23.8772 76.6821 23.3945C76.4115 22.9118 75.9907 22.5488 75.4948 22.3706V22.3706Z" fill="black"/>
</svg>
