<svg width="96" height="112" viewBox="0 0 96 112" fill="none" xmlns="http://www.w3.org/2000/svg">
<g clip-path="url(#clip0)">
<path d="M82.3109 16.9233H0V62.0909C0 75.4093 11.0442 99.6364 39.6458 104.75C40.6373 104.928 41.6736 104.928 42.6652 104.75C71.2667 99.6364 82.3109 75.4093 82.3109 62.0909V16.9233Z" fill="#747474"/>
<path d="M41.1549 44.3755C31.6892 44.3755 24.0068 51.806 24.0068 60.9614C24.0068 70.1168 31.6892 77.5472 41.1549 77.5472C50.6207 77.5472 58.3031 70.1168 58.3031 60.9614C58.3031 51.806 50.6207 44.3755 41.1549 44.3755ZM39.4401 74.1139C32.6666 73.3012 27.4365 67.7284 27.4365 60.9614C27.4365 59.933 27.5736 58.9545 27.7966 57.9925L36.0105 65.9371V67.5957C36.0105 69.4201 37.5538 70.9129 39.4401 70.9129V74.1139ZM51.2723 69.9011C50.8265 68.5577 49.5575 67.5957 48.0142 67.5957H46.2994V62.6199C46.2994 61.7077 45.5277 60.9614 44.5846 60.9614H34.2957V57.6442H37.7253C38.6685 57.6442 39.4401 56.8978 39.4401 55.9856V52.6684H42.8698C44.756 52.6684 46.2994 51.1757 46.2994 49.3512V48.6712C51.3238 50.6449 54.8734 55.4051 54.8734 60.9614C54.8734 64.4112 53.5016 67.5459 51.2723 69.9011Z" fill="#F8F8F8"/>
<path d="M93.0621 20.345C93.0621 28.4714 86.4744 35.0592 78.348 35.0592C70.2215 35.0592 63.6338 28.4714 63.6338 20.345C63.6338 12.2186 70.2215 5.63086 78.348 5.63086C86.4744 5.63086 93.0621 12.2186 93.0621 20.345Z" fill="white"/>
<path d="M94.6981 20.3491C94.6981 29.3784 87.3784 36.6981 78.3491 36.6981C69.3197 36.6981 62 29.3784 62 20.3491C62 11.3197 69.3197 4 78.3491 4C87.3784 4 94.6981 11.3197 94.6981 20.3491Z" fill="#747474"/>
<path fill-rule="evenodd" clip-rule="evenodd" d="M78.3491 33.8371C85.7983 33.8371 91.8371 27.7983 91.8371 20.3491C91.8371 12.8999 85.7983 6.86109 78.3491 6.86109C70.8999 6.86109 64.8611 12.8999 64.8611 20.3491C64.8611 27.7983 70.8999 33.8371 78.3491 33.8371ZM78.3491 36.6981C87.3784 36.6981 94.6981 29.3784 94.6981 20.3491C94.6981 11.3197 87.3784 4 78.3491 4C69.3197 4 62 11.3197 62 20.3491C62 29.3784 69.3197 36.6981 78.3491 36.6981Z" fill="#F8F8F8"/>
<path d="M84.4794 22.2859L80.3141 20.7881V12.48C80.3141 11.9651 80.1247 11.4713 79.7874 11.1072C79.4502 10.7431 78.9928 10.5386 78.5159 10.5386C78.039 10.5386 77.5817 10.7431 77.2444 11.1072C76.9072 11.4713 76.7178 11.9651 76.7178 12.48V22.1873C76.7181 22.5948 76.8369 22.9918 77.0575 23.3225C77.278 23.6531 77.5892 23.9007 77.947 24.0301L83.3415 25.9716C83.5249 26.0375 83.7171 26.0708 83.9104 26.0702C84.3376 26.0704 84.7509 25.9064 85.0764 25.6076C85.4018 25.3088 85.6181 24.8947 85.6865 24.4394C85.755 23.9842 85.6711 23.5175 85.4499 23.1229C85.2287 22.7283 84.8847 22.4316 84.4794 22.2859V22.2859Z" fill="#F8F8F8"/>
</g>
<defs>
<clipPath id="clip0">
<rect width="96" height="112" fill="white"/>
</clipPath>
</defs>
</svg>
