<svg width="96" height="112" viewBox="0 0 96 112" fill="none" xmlns="http://www.w3.org/2000/svg">
<g clip-path="url(#clip0)">
<path d="M82.3109 16.9233H0V62.0909C0 75.4093 11.0442 99.6364 39.6458 104.75C40.6373 104.928 41.6736 104.928 42.6652 104.75C71.2667 99.6364 82.3109 75.4093 82.3109 62.0909V16.9233Z" fill="#747474"/>
<path d="M60.5146 9.48122C60.5146 7.00631 62.3861 5 64.6948 5H90.8205C93.1291 5 95.0006 7.00631 95.0006 9.48122V31.8873C95.0006 34.3623 93.1291 36.3686 90.8205 36.3686H64.6948C62.3861 36.3686 60.5146 34.3623 60.5146 31.8873V9.48122Z" fill="#F8F8F8"/>
<path d="M91.1762 8.59361C90.719 8.28879 90.1642 8.13623 89.5107 8.13623H65.9976C65.3444 8.13623 64.7894 8.28862 64.3321 8.59361C63.8749 8.89861 63.6465 9.26902 63.6465 9.70454V12.8416C63.6465 13.2774 63.8749 13.6474 64.3321 13.9525C64.7891 14.2573 65.3444 14.4099 65.9976 14.4099H89.5113C90.1642 14.4099 90.719 14.2573 91.1765 13.9525C91.6339 13.6477 91.8623 13.2774 91.8623 12.8416V9.70454C91.8623 9.26896 91.6339 8.89861 91.1762 8.59361Z" fill="#747474"/>
<path d="M91.1762 18.0033C90.719 17.6985 90.1642 17.5459 89.5107 17.5459H65.9976C65.3444 17.5459 64.7894 17.6983 64.3321 18.0033C63.8749 18.3083 63.6465 18.6787 63.6465 19.1142V22.2512C63.6465 22.6871 63.8749 23.0571 64.3321 23.3622C64.7891 23.667 65.3444 23.8196 65.9976 23.8196H89.5113C90.1642 23.8196 90.719 23.667 91.1765 23.3622C91.6339 23.0573 91.8623 22.6871 91.8623 22.2512V19.1142C91.8623 18.6786 91.6339 18.3083 91.1762 18.0033Z" fill="#747474"/>
<path d="M91.1762 27.413C90.719 27.1081 90.1642 26.9556 89.5107 26.9556H65.9976C65.3444 26.9556 64.7894 27.108 64.3321 27.413C63.8749 27.718 63.6465 28.0884 63.6465 28.5239V31.6609C63.6465 32.0967 63.8749 32.4668 64.3321 32.7718C64.7891 33.0767 65.3444 33.2293 65.9976 33.2293H89.5113C90.1642 33.2293 90.719 33.0767 91.1765 32.7718C91.6339 32.467 91.8623 32.0967 91.8623 31.6609V28.5239C91.8623 28.0883 91.6339 27.718 91.1762 27.413Z" fill="#747474"/>
<path d="M41.1549 44.3755C31.6892 44.3755 24.0068 51.806 24.0068 60.9614C24.0068 70.1168 31.6892 77.5472 41.1549 77.5472C50.6207 77.5472 58.3031 70.1168 58.3031 60.9614C58.3031 51.806 50.6207 44.3755 41.1549 44.3755ZM39.4401 74.1139C32.6666 73.3012 27.4365 67.7284 27.4365 60.9614C27.4365 59.933 27.5736 58.9545 27.7966 57.9925L36.0105 65.9371V67.5957C36.0105 69.4201 37.5538 70.9129 39.4401 70.9129V74.1139ZM51.2723 69.9011C50.8265 68.5577 49.5575 67.5957 48.0142 67.5957H46.2994V62.6199C46.2994 61.7077 45.5277 60.9614 44.5846 60.9614H34.2957V57.6442H37.7253C38.6685 57.6442 39.4401 56.8978 39.4401 55.9856V52.6684H42.8698C44.756 52.6684 46.2994 51.1757 46.2994 49.3512V48.6712C51.3238 50.6449 54.8734 55.4051 54.8734 60.9614C54.8734 64.4112 53.5016 67.5459 51.2723 69.9011Z" fill="#F8F8F8"/>
</g>
<defs>
<clipPath id="clip0">
<rect width="96" height="112" fill="white"/>
</clipPath>
</defs>
</svg>
