<svg width="115" height="134" viewBox="0 0 115 134" fill="none" xmlns="http://www.w3.org/2000/svg">
<path d="M23.0674 60.7688V74.1629C23.0674 75.27 23.4243 76.2863 24.0166 77.1275H90.3209C90.9142 76.2874 91.2712 75.27 91.2712 74.164V60.7688C91.2712 59.6616 90.9142 58.6454 90.322 57.8042H24.0166C23.4243 58.6454 23.0674 59.6628 23.0674 60.7688ZM82.1773 68.0348C82.8048 68.0348 83.3141 68.544 83.3141 69.1715C83.3141 69.799 82.8048 70.3082 82.1773 70.3082C81.5499 70.3082 81.0406 69.799 81.0406 69.1715C81.0406 68.544 81.5499 68.0348 82.1773 68.0348ZM79.9039 64.6246C80.5313 64.6246 81.0406 65.1338 81.0406 65.7613C81.0406 66.3888 80.5313 66.898 79.9039 66.898C79.2764 66.898 78.7671 66.3888 78.7671 65.7613C78.7671 65.1338 79.2764 64.6246 79.9039 64.6246ZM77.6304 68.0348C78.2579 68.0348 78.7671 68.544 78.7671 69.1715C78.7671 69.799 78.2579 70.3082 77.6304 70.3082C77.0029 70.3082 76.4937 69.799 76.4937 69.1715C76.4937 68.544 77.0029 68.0348 77.6304 68.0348ZM75.3569 64.6246C75.9844 64.6246 76.4937 65.1338 76.4937 65.7613C76.4937 66.3888 75.9844 66.898 75.3569 66.898C74.7295 66.898 74.2202 66.3888 74.2202 65.7613C74.2202 65.1338 74.7295 64.6246 75.3569 64.6246ZM73.0835 68.0348C73.711 68.0348 74.2202 68.544 74.2202 69.1715C74.2202 69.799 73.711 70.3082 73.0835 70.3082C72.456 70.3082 71.9468 69.799 71.9468 69.1715C71.9468 68.544 72.456 68.0348 73.0835 68.0348ZM70.81 64.6246C71.4375 64.6246 71.9468 65.1338 71.9468 65.7613C71.9468 66.3888 71.4375 66.898 70.81 66.898C70.1826 66.898 69.6733 66.3888 69.6733 65.7613C69.6733 65.1338 70.1826 64.6246 70.81 64.6246ZM68.5366 68.0348C69.164 68.0348 69.6733 68.544 69.6733 69.1715C69.6733 69.799 69.164 70.3082 68.5366 70.3082C67.9091 70.3082 67.3998 69.799 67.3998 69.1715C67.3998 68.544 67.9091 68.0348 68.5366 68.0348ZM66.2631 64.6246C66.8906 64.6246 67.3998 65.1338 67.3998 65.7613C67.3998 66.3888 66.8906 66.898 66.2631 66.898C65.6356 66.898 65.1264 66.3888 65.1264 65.7613C65.1264 65.1338 65.6356 64.6246 66.2631 64.6246ZM63.9897 68.0348C64.6171 68.0348 65.1264 68.544 65.1264 69.1715C65.1264 69.799 64.6171 70.3082 63.9897 70.3082C63.3622 70.3082 62.8529 69.799 62.8529 69.1715C62.8529 68.544 63.3622 68.0348 63.9897 68.0348ZM61.7162 64.6246C62.3437 64.6246 62.8529 65.1338 62.8529 65.7613C62.8529 66.3888 62.3437 66.898 61.7162 66.898C61.0887 66.898 60.5795 66.3888 60.5795 65.7613C60.5795 65.1338 61.0887 64.6246 61.7162 64.6246ZM35.003 62.3511C37.8233 62.3511 40.1183 64.6462 40.1183 67.4664C40.1183 70.2866 37.8233 72.5817 35.003 72.5817C32.1828 72.5817 29.8878 70.2866 29.8878 67.4664C29.8878 64.6462 32.1828 62.3511 35.003 62.3511Z" fill="#3A3C3F"/>
<path d="M90.322 55.531C90.9142 54.6898 91.2712 53.6724 91.2712 52.5664V39.1712C91.2712 36.2827 88.9215 33.9331 86.0331 33.9331H28.3054C25.417 33.9331 23.0674 36.2827 23.0674 39.1712V52.5652C23.0674 53.6724 23.4243 54.6887 24.0166 55.5298H90.322V55.531ZM82.1773 46.4371C82.8048 46.4371 83.3141 46.9464 83.3141 47.5739C83.3141 48.2013 82.8048 48.7106 82.1773 48.7106C81.5499 48.7106 81.0406 48.2013 81.0406 47.5739C81.0406 46.9464 81.5499 46.4371 82.1773 46.4371ZM79.9039 43.0269C80.5313 43.0269 81.0406 43.5362 81.0406 44.1637C81.0406 44.7911 80.5313 45.3004 79.9039 45.3004C79.2764 45.3004 78.7671 44.7911 78.7671 44.1637C78.7671 43.5362 79.2764 43.0269 79.9039 43.0269ZM77.6304 46.4371C78.2579 46.4371 78.7671 46.9464 78.7671 47.5739C78.7671 48.2013 78.2579 48.7106 77.6304 48.7106C77.0029 48.7106 76.4937 48.2013 76.4937 47.5739C76.4937 46.9464 77.0029 46.4371 77.6304 46.4371ZM75.3569 43.0269C75.9844 43.0269 76.4937 43.5362 76.4937 44.1637C76.4937 44.7911 75.9844 45.3004 75.3569 45.3004C74.7295 45.3004 74.2202 44.7911 74.2202 44.1637C74.2202 43.5362 74.7295 43.0269 75.3569 43.0269ZM73.0835 46.4371C73.711 46.4371 74.2202 46.9464 74.2202 47.5739C74.2202 48.2013 73.711 48.7106 73.0835 48.7106C72.456 48.7106 71.9468 48.2013 71.9468 47.5739C71.9468 46.9464 72.456 46.4371 73.0835 46.4371ZM70.81 43.0269C71.4375 43.0269 71.9468 43.5362 71.9468 44.1637C71.9468 44.7911 71.4375 45.3004 70.81 45.3004C70.1826 45.3004 69.6733 44.7911 69.6733 44.1637C69.6733 43.5362 70.1826 43.0269 70.81 43.0269ZM68.5366 46.4371C69.164 46.4371 69.6733 46.9464 69.6733 47.5739C69.6733 48.2013 69.164 48.7106 68.5366 48.7106C67.9091 48.7106 67.3998 48.2013 67.3998 47.5739C67.3998 46.9464 67.9091 46.4371 68.5366 46.4371ZM66.2631 43.0269C66.8906 43.0269 67.3998 43.5362 67.3998 44.1637C67.3998 44.7911 66.8906 45.3004 66.2631 45.3004C65.6356 45.3004 65.1264 44.7911 65.1264 44.1637C65.1264 43.5362 65.6356 43.0269 66.2631 43.0269ZM63.9897 46.4371C64.6171 46.4371 65.1264 46.9464 65.1264 47.5739C65.1264 48.2013 64.6171 48.7106 63.9897 48.7106C63.3622 48.7106 62.8529 48.2013 62.8529 47.5739C62.8529 46.9464 63.3622 46.4371 63.9897 46.4371ZM61.7162 43.0269C62.3437 43.0269 62.8529 43.5362 62.8529 44.1637C62.8529 44.7911 62.3437 45.3004 61.7162 45.3004C61.0887 45.3004 60.5795 44.7911 60.5795 44.1637C60.5795 43.5362 61.0887 43.0269 61.7162 43.0269ZM35.003 40.7535C37.8233 40.7535 40.1183 43.0485 40.1183 45.8688C40.1183 48.689 37.8233 50.9841 35.003 50.9841C32.1828 50.9841 29.8878 48.689 29.8878 45.8688C29.8878 43.0485 32.1828 40.7535 35.003 40.7535Z" fill="#3A3C3F"/>
<path d="M24.0166 79.4019C23.4243 80.243 23.0674 81.2604 23.0674 82.3664V95.7605C23.0674 98.6501 25.417 101 28.3054 101H86.032C88.9204 101 91.27 98.6501 91.27 95.7617V82.3664C91.27 81.2593 90.9131 80.243 90.3209 79.4019H24.0166ZM35.003 94.1793C32.1828 94.1793 29.8878 91.8843 29.8878 89.0641C29.8878 86.2438 32.1828 83.9488 35.003 83.9488C37.8233 83.9488 40.1183 86.2438 40.1183 89.0641C40.1183 91.8843 37.8233 94.1793 35.003 94.1793ZM61.7162 88.4957C61.0887 88.4957 60.5795 87.9864 60.5795 87.359C60.5795 86.7315 61.0887 86.2222 61.7162 86.2222C62.3437 86.2222 62.8529 86.7315 62.8529 87.359C62.8529 87.9864 62.3437 88.4957 61.7162 88.4957ZM63.9897 91.9059C63.3622 91.9059 62.8529 91.3966 62.8529 90.7692C62.8529 90.1417 63.3622 89.6324 63.9897 89.6324C64.6171 89.6324 65.1264 90.1417 65.1264 90.7692C65.1264 91.3966 64.6171 91.9059 63.9897 91.9059ZM66.2631 88.4957C65.6356 88.4957 65.1264 87.9864 65.1264 87.359C65.1264 86.7315 65.6356 86.2222 66.2631 86.2222C66.8906 86.2222 67.3998 86.7315 67.3998 87.359C67.3998 87.9864 66.8906 88.4957 66.2631 88.4957ZM68.5366 91.9059C67.9091 91.9059 67.3998 91.3966 67.3998 90.7692C67.3998 90.1417 67.9091 89.6324 68.5366 89.6324C69.164 89.6324 69.6733 90.1417 69.6733 90.7692C69.6733 91.3966 69.164 91.9059 68.5366 91.9059ZM70.81 88.4957C70.1826 88.4957 69.6733 87.9864 69.6733 87.359C69.6733 86.7315 70.1826 86.2222 70.81 86.2222C71.4375 86.2222 71.9468 86.7315 71.9468 87.359C71.9468 87.9864 71.4375 88.4957 70.81 88.4957ZM73.0835 91.9059C72.456 91.9059 71.9468 91.3966 71.9468 90.7692C71.9468 90.1417 72.456 89.6324 73.0835 89.6324C73.711 89.6324 74.2202 90.1417 74.2202 90.7692C74.2202 91.3966 73.711 91.9059 73.0835 91.9059ZM75.3569 88.4957C74.7295 88.4957 74.2202 87.9864 74.2202 87.359C74.2202 86.7315 74.7295 86.2222 75.3569 86.2222C75.9844 86.2222 76.4937 86.7315 76.4937 87.359C76.4937 87.9864 75.9844 88.4957 75.3569 88.4957ZM77.6304 91.9059C77.0029 91.9059 76.4937 91.3966 76.4937 90.7692C76.4937 90.1417 77.0029 89.6324 77.6304 89.6324C78.2579 89.6324 78.7671 90.1417 78.7671 90.7692C78.7671 91.3966 78.2579 91.9059 77.6304 91.9059ZM79.9039 88.4957C79.2764 88.4957 78.7671 87.9864 78.7671 87.359C78.7671 86.7315 79.2764 86.2222 79.9039 86.2222C80.5313 86.2222 81.0406 86.7315 81.0406 87.359C81.0406 87.9864 80.5313 88.4957 79.9039 88.4957ZM82.1773 91.9059C81.5499 91.9059 81.0406 91.3966 81.0406 90.7692C81.0406 90.1417 81.5499 89.6324 82.1773 89.6324C82.8048 89.6324 83.3141 90.1417 83.3141 90.7692C83.3141 91.3966 82.8048 91.9059 82.1773 91.9059Z" fill="#3A3C3F"/>
</svg>
