<svg width="115" height="134" viewBox="0 0 115 134" fill="none" xmlns="http://www.w3.org/2000/svg">
<rect x="58.0684" y="41.5703" width="26.4971" height="7.5706" fill="#008BF1"/>
<rect x="58.0684" y="64.2827" width="26.4971" height="7.5706" fill="#008BF1"/>
<rect x="58.0684" y="83.2085" width="26.4971" height="11.3559" fill="#008BF1"/>
<circle cx="35.3558" cy="45.3562" r="7.5706" fill="#008BF1"/>
<circle cx="35.3558" cy="68.0677" r="7.5706" fill="#008BF1"/>
<circle cx="35.3558" cy="90.7791" r="7.5706" fill="#008BF1"/>
<path d="M24 60.8083V74.189C24 75.295 24.3566 76.3102 24.9482 77.1506H91.1861C91.7788 76.3114 92.1354 75.295 92.1354 74.1901V60.8083C92.1354 59.7022 91.7788 58.687 91.1872 57.8467H24.9482C24.3566 58.687 24 59.7034 24 60.8083ZM83.0507 68.067C83.6775 68.067 84.1863 68.5757 84.1863 69.2026C84.1863 69.8294 83.6775 70.3382 83.0507 70.3382C82.4239 70.3382 81.9151 69.8294 81.9151 69.2026C81.9151 68.5757 82.4239 68.067 83.0507 68.067ZM80.7795 64.6602C81.4064 64.6602 81.9151 65.169 81.9151 65.7958C81.9151 66.4227 81.4064 66.9314 80.7795 66.9314C80.1527 66.9314 79.6439 66.4227 79.6439 65.7958C79.6439 65.169 80.1527 64.6602 80.7795 64.6602ZM78.5083 68.067C79.1352 68.067 79.6439 68.5757 79.6439 69.2026C79.6439 69.8294 79.1352 70.3382 78.5083 70.3382C77.8815 70.3382 77.3727 69.8294 77.3727 69.2026C77.3727 68.5757 77.8815 68.067 78.5083 68.067ZM76.2372 64.6602C76.864 64.6602 77.3727 65.169 77.3727 65.7958C77.3727 66.4227 76.864 66.9314 76.2372 66.9314C75.6103 66.9314 75.1016 66.4227 75.1016 65.7958C75.1016 65.169 75.6103 64.6602 76.2372 64.6602ZM73.966 68.067C74.5928 68.067 75.1016 68.5757 75.1016 69.2026C75.1016 69.8294 74.5928 70.3382 73.966 70.3382C73.3391 70.3382 72.8304 69.8294 72.8304 69.2026C72.8304 68.5757 73.3391 68.067 73.966 68.067ZM71.6948 64.6602C72.3216 64.6602 72.8304 65.169 72.8304 65.7958C72.8304 66.4227 72.3216 66.9314 71.6948 66.9314C71.0679 66.9314 70.5592 66.4227 70.5592 65.7958C70.5592 65.169 71.0679 64.6602 71.6948 64.6602ZM69.4236 68.067C70.0505 68.067 70.5592 68.5757 70.5592 69.2026C70.5592 69.8294 70.0505 70.3382 69.4236 70.3382C68.7968 70.3382 68.288 69.8294 68.288 69.2026C68.288 68.5757 68.7968 68.067 69.4236 68.067ZM67.1524 64.6602C67.7793 64.6602 68.288 65.169 68.288 65.7958C68.288 66.4227 67.7793 66.9314 67.1524 66.9314C66.5256 66.9314 66.0168 66.4227 66.0168 65.7958C66.0168 65.169 66.5256 64.6602 67.1524 64.6602ZM64.8813 68.067C65.5081 68.067 66.0168 68.5757 66.0168 69.2026C66.0168 69.8294 65.5081 70.3382 64.8813 70.3382C64.2544 70.3382 63.7457 69.8294 63.7457 69.2026C63.7457 68.5757 64.2544 68.067 64.8813 68.067ZM62.6101 64.6602C63.2369 64.6602 63.7457 65.169 63.7457 65.7958C63.7457 66.4227 63.2369 66.9314 62.6101 66.9314C61.9832 66.9314 61.4745 66.4227 61.4745 65.7958C61.4745 65.169 61.9832 64.6602 62.6101 64.6602ZM35.9237 62.389C38.7411 62.389 41.0339 64.6818 41.0339 67.4992C41.0339 70.3166 38.7411 72.6094 35.9237 72.6094C33.1063 72.6094 30.8135 70.3166 30.8135 67.4992C30.8135 64.6818 33.1063 62.389 35.9237 62.389Z" fill="#142D51"/>
<path d="M91.1872 55.5762C91.7788 54.7359 92.1354 53.7195 92.1354 52.6146V39.2328C92.1354 36.3473 89.7882 34 86.9026 34H29.2328C26.3473 34 24 36.3473 24 39.2328V52.6135C24 53.7195 24.3566 54.7347 24.9482 55.5751H91.1872V55.5762ZM83.0507 46.4915C83.6775 46.4915 84.1863 47.0002 84.1863 47.6271C84.1863 48.2539 83.6775 48.7627 83.0507 48.7627C82.4239 48.7627 81.9151 48.2539 81.9151 47.6271C81.9151 47.0002 82.4239 46.4915 83.0507 46.4915ZM80.7795 43.0847C81.4064 43.0847 81.9151 43.5935 81.9151 44.2203C81.9151 44.8472 81.4064 45.3559 80.7795 45.3559C80.1527 45.3559 79.6439 44.8472 79.6439 44.2203C79.6439 43.5935 80.1527 43.0847 80.7795 43.0847ZM78.5083 46.4915C79.1352 46.4915 79.6439 47.0002 79.6439 47.6271C79.6439 48.2539 79.1352 48.7627 78.5083 48.7627C77.8815 48.7627 77.3727 48.2539 77.3727 47.6271C77.3727 47.0002 77.8815 46.4915 78.5083 46.4915ZM76.2372 43.0847C76.864 43.0847 77.3727 43.5935 77.3727 44.2203C77.3727 44.8472 76.864 45.3559 76.2372 45.3559C75.6103 45.3559 75.1016 44.8472 75.1016 44.2203C75.1016 43.5935 75.6103 43.0847 76.2372 43.0847ZM73.966 46.4915C74.5928 46.4915 75.1016 47.0002 75.1016 47.6271C75.1016 48.2539 74.5928 48.7627 73.966 48.7627C73.3391 48.7627 72.8304 48.2539 72.8304 47.6271C72.8304 47.0002 73.3391 46.4915 73.966 46.4915ZM71.6948 43.0847C72.3216 43.0847 72.8304 43.5935 72.8304 44.2203C72.8304 44.8472 72.3216 45.3559 71.6948 45.3559C71.0679 45.3559 70.5592 44.8472 70.5592 44.2203C70.5592 43.5935 71.0679 43.0847 71.6948 43.0847ZM69.4236 46.4915C70.0505 46.4915 70.5592 47.0002 70.5592 47.6271C70.5592 48.2539 70.0505 48.7627 69.4236 48.7627C68.7968 48.7627 68.288 48.2539 68.288 47.6271C68.288 47.0002 68.7968 46.4915 69.4236 46.4915ZM67.1524 43.0847C67.7793 43.0847 68.288 43.5935 68.288 44.2203C68.288 44.8472 67.7793 45.3559 67.1524 45.3559C66.5256 45.3559 66.0168 44.8472 66.0168 44.2203C66.0168 43.5935 66.5256 43.0847 67.1524 43.0847ZM64.8813 46.4915C65.5081 46.4915 66.0168 47.0002 66.0168 47.6271C66.0168 48.2539 65.5081 48.7627 64.8813 48.7627C64.2544 48.7627 63.7457 48.2539 63.7457 47.6271C63.7457 47.0002 64.2544 46.4915 64.8813 46.4915ZM62.6101 43.0847C63.2369 43.0847 63.7457 43.5935 63.7457 44.2203C63.7457 44.8472 63.2369 45.3559 62.6101 45.3559C61.9832 45.3559 61.4745 44.8472 61.4745 44.2203C61.4745 43.5935 61.9832 43.0847 62.6101 43.0847ZM35.9237 40.8135C38.7411 40.8135 41.0339 43.1063 41.0339 45.9237C41.0339 48.7411 38.7411 51.0339 35.9237 51.0339C33.1063 51.0339 30.8135 48.7411 30.8135 45.9237C30.8135 43.1063 33.1063 40.8135 35.9237 40.8135Z" fill="#142D51"/>
<path d="M24.9482 79.4238C24.3566 80.2642 24 81.2805 24 82.3854V95.7661C24 98.6528 26.3473 101 29.2328 101H86.9015C89.787 101 92.1343 98.6528 92.1343 95.7672V82.3854C92.1343 81.2794 91.7777 80.2642 91.1861 79.4238H24.9482ZM35.9237 94.1865C33.1063 94.1865 30.8135 91.8937 30.8135 89.0763C30.8135 86.2589 33.1063 83.9662 35.9237 83.9662C38.7411 83.9662 41.0339 86.2589 41.0339 89.0763C41.0339 91.8937 38.7411 94.1865 35.9237 94.1865ZM62.6101 88.5086C61.9832 88.5086 61.4745 87.9998 61.4745 87.373C61.4745 86.7461 61.9832 86.2374 62.6101 86.2374C63.2369 86.2374 63.7457 86.7461 63.7457 87.373C63.7457 87.9998 63.2369 88.5086 62.6101 88.5086ZM64.8813 91.9153C64.2544 91.9153 63.7457 91.4066 63.7457 90.7797C63.7457 90.1529 64.2544 89.6441 64.8813 89.6441C65.5081 89.6441 66.0168 90.1529 66.0168 90.7797C66.0168 91.4066 65.5081 91.9153 64.8813 91.9153ZM67.1524 88.5086C66.5256 88.5086 66.0168 87.9998 66.0168 87.373C66.0168 86.7461 66.5256 86.2374 67.1524 86.2374C67.7793 86.2374 68.288 86.7461 68.288 87.373C68.288 87.9998 67.7793 88.5086 67.1524 88.5086ZM69.4236 91.9153C68.7968 91.9153 68.288 91.4066 68.288 90.7797C68.288 90.1529 68.7968 89.6441 69.4236 89.6441C70.0505 89.6441 70.5592 90.1529 70.5592 90.7797C70.5592 91.4066 70.0505 91.9153 69.4236 91.9153ZM71.6948 88.5086C71.0679 88.5086 70.5592 87.9998 70.5592 87.373C70.5592 86.7461 71.0679 86.2374 71.6948 86.2374C72.3216 86.2374 72.8304 86.7461 72.8304 87.373C72.8304 87.9998 72.3216 88.5086 71.6948 88.5086ZM73.966 91.9153C73.3391 91.9153 72.8304 91.4066 72.8304 90.7797C72.8304 90.1529 73.3391 89.6441 73.966 89.6441C74.5928 89.6441 75.1016 90.1529 75.1016 90.7797C75.1016 91.4066 74.5928 91.9153 73.966 91.9153ZM76.2372 88.5086C75.6103 88.5086 75.1016 87.9998 75.1016 87.373C75.1016 86.7461 75.6103 86.2374 76.2372 86.2374C76.864 86.2374 77.3727 86.7461 77.3727 87.373C77.3727 87.9998 76.864 88.5086 76.2372 88.5086ZM78.5083 91.9153C77.8815 91.9153 77.3727 91.4066 77.3727 90.7797C77.3727 90.1529 77.8815 89.6441 78.5083 89.6441C79.1352 89.6441 79.6439 90.1529 79.6439 90.7797C79.6439 91.4066 79.1352 91.9153 78.5083 91.9153ZM80.7795 88.5086C80.1527 88.5086 79.6439 87.9998 79.6439 87.373C79.6439 86.7461 80.1527 86.2374 80.7795 86.2374C81.4064 86.2374 81.9151 86.7461 81.9151 87.373C81.9151 87.9998 81.4064 88.5086 80.7795 88.5086ZM83.0507 91.9153C82.4239 91.9153 81.9151 91.4066 81.9151 90.7797C81.9151 90.1529 82.4239 89.6441 83.0507 89.6441C83.6775 89.6441 84.1863 90.1529 84.1863 90.7797C84.1863 91.4066 83.6775 91.9153 83.0507 91.9153Z" fill="#142D51"/>
</svg>
