<svg width="124" height="151" viewBox="0 0 124 151" fill="none" xmlns="http://www.w3.org/2000/svg">
<path d="M49.0713 72.2393C48.7072 71.8405 48.2465 71.5423 47.7704 71.2938C46.7338 70.7532 45.6002 70.4254 44.4746 70.1294V78.8515C46.3016 78.6451 48.3991 77.982 49.3583 76.2764C49.8163 75.4617 49.9074 74.4606 49.7208 73.5537C49.6197 73.0622 49.4107 72.6112 49.0713 72.2393Z" fill="#3A3C3F"/>
<path d="M49.3535 76.2858C49.3559 76.2818 49.3572 76.2792 49.3598 76.2749C49.3577 76.2785 49.3556 76.2821 49.3535 76.2858Z" fill="black"/>
<path d="M35.9026 58.2969C35.5886 58.7556 35.3915 59.2766 35.3371 59.8305C35.2827 60.3855 35.3132 61.0029 35.5241 61.5253C35.7248 62.0232 36.1454 62.3907 36.5795 62.6867C37.0666 63.018 37.6023 63.2768 38.1479 63.4961C38.6056 63.6804 39.1205 63.8566 39.6755 64.0268V56.1343C38.2734 56.4335 36.7415 57.0722 35.9026 58.2969Z" fill="#3A3C3F"/>
<path d="M49.3914 76.2134C49.3806 76.2326 49.3689 76.2528 49.3574 76.274C49.3708 76.2493 49.3814 76.2311 49.3914 76.2134Z" fill="black"/>
<path d="M49.4385 76.1262C49.4407 76.1222 49.441 76.1218 49.4385 76.1262V76.1262Z" fill="black"/>
<path d="M47.546 28.6842C54.9634 22.4533 59.9196 8.41581 56.8695 7.80185C52.8168 6.98575 44.0162 10.5642 39.7625 11.1947C33.7293 11.9232 27.1583 4.65241 23.4699 8.70513C20.471 12.0003 25.6199 23.9836 33.6756 29.2041C9.64195 41.0163 -24.139 100.314 34.7936 104.617C116.337 110.571 75.5053 40.1949 47.546 28.6842ZM54.549 75.4495C54.2983 77.7613 53.0731 79.8519 51.2417 81.2712C49.3081 82.7698 46.8827 83.4668 44.473 83.6621V86.2164C44.473 86.8999 44.1745 87.5609 43.6629 88.0133C42.9596 88.6355 41.9263 88.789 41.0728 88.3958C40.2301 88.008 39.6764 87.1438 39.6764 86.2164V83.4246C39.2632 83.3462 38.853 83.2528 38.4476 83.1415C36.1955 82.5227 34.1065 81.3166 32.5805 79.532C31.8204 78.6425 31.2007 77.6333 30.7721 76.5437C30.6602 76.2589 30.5603 75.9689 30.4729 75.6757C30.3938 75.4103 30.3121 75.1405 30.2839 74.8638C30.2364 74.3996 30.3284 73.9261 30.5447 73.5126C30.9894 72.6621 31.9264 72.1484 32.8831 72.2338C33.8247 72.3173 34.65 72.9707 34.9464 73.8682C35.0377 74.1447 35.0997 74.4281 35.2023 74.7015C35.3039 74.9732 35.4266 75.2373 35.571 75.4887C35.8559 75.9839 36.2129 76.4404 36.6241 76.8367C37.4716 77.6532 38.5511 78.1839 39.6764 78.4996V69.0098C37.4759 68.4401 35.2046 67.7043 33.3874 66.2914C32.5043 65.6045 31.755 64.751 31.2642 63.7408C30.7464 62.6746 30.5319 61.4868 30.5232 60.3071C30.5142 59.1092 30.7418 57.9219 31.2415 56.8305C31.7096 55.8086 32.3834 54.8911 33.2096 54.1305C34.9763 52.5045 37.3229 51.5976 39.6767 51.2644V51.0556V48.6128C39.6767 47.9296 39.9752 47.2684 40.4868 46.8159C41.1902 46.1939 42.2232 46.0402 43.0769 46.4335C43.9194 46.8214 44.4732 47.6855 44.4732 48.6128V51.0556V51.25C44.7869 51.2894 45.0996 51.3367 45.4107 51.3931C47.722 51.8114 49.9826 52.7658 51.6729 54.4322C52.4736 55.2215 53.1291 56.1619 53.59 57.1875C53.7187 57.4736 53.8314 57.7663 53.9289 58.0648C54.0197 58.3431 54.111 58.6297 54.1544 58.9202C54.2237 59.3839 54.153 59.8629 53.9546 60.2871C53.548 61.1562 52.6362 61.7096 51.677 61.6686C50.7345 61.6275 49.8805 61.0138 49.543 60.1327C49.4425 59.8707 49.3923 59.5933 49.2897 59.332C49.1862 59.0675 49.0523 58.8151 48.8979 58.5767C48.5978 58.1133 48.2089 57.7159 47.7649 57.3885C46.8036 56.6786 45.6376 56.3088 44.4725 56.102V65.1835C45.8572 65.515 47.2429 65.8766 48.5695 66.3997C50.5746 67.1903 52.4745 68.4027 53.5689 70.3143C53.3991 70.0165 53.2339 69.7263 53.5746 70.3242C53.9091 70.9115 53.7495 70.6316 53.5815 70.3373C54.4522 71.8717 54.7383 73.7065 54.549 75.4495Z" fill="#747474"/>
<path d="M49.3169 76.3354C49.3038 76.359 49.2923 76.3798 49.2832 76.3956C49.291 76.382 49.3027 76.3614 49.3169 76.3354Z" fill="black"/>
<path d="M30.9091 113.788L66.3489 151L66.3489 129.736C101.789 124.42 116.977 97.8403 122.04 71.2604C109.383 89.8663 91.6631 98.3719 66.3489 98.3719L66.3489 76.5764L30.9091 113.788Z" fill="#747474"/>
<path fill-rule="evenodd" clip-rule="evenodd" d="M71.1453 98.2656C69.5775 98.3366 67.979 98.3719 66.3489 98.3719L66.3489 76.5764L30.9091 113.788L66.3489 151L66.3489 129.736C96.6506 125.191 112.147 105.101 119.169 82.7565C120.359 78.9677 121.306 75.114 122.04 71.2604C119.836 74.5001 117.479 77.4335 114.955 80.0692C103.915 91.5957 89.6849 97.4265 71.1453 98.2656ZM111.3 89.9724C99.3637 99.155 84.5555 103.408 66.3489 103.408L61.5525 103.408L61.5525 88.7348L37.6922 113.788L61.5525 138.842L61.5525 125.368L65.6706 124.751C82.2849 122.258 93.8916 114.857 101.976 105.156C105.785 100.585 108.859 95.4459 111.3 89.9724Z" fill="#F3F3F3"/>
<circle cx="41.8691" cy="67.2734" r="23.9219" fill="#747474"/>
<path d="M26.0814 55.313H55.8252V70.0896L39.1981 57.8358H35.5032L55.8252 72.7926C54.3712 82.205 46.9959 85.9764 42.3702 86.9688C41.3775 87.1818 40.3471 87.1171 39.3679 86.8487C26.9824 83.4535 25.3108 72.3456 26.0814 67.0261L47.5117 82.3434L49.1744 80.7215L26.0814 63.9627V55.313Z" fill="#F3F3F3"/>
</svg>
