<svg width="130" height="151" viewBox="0 0 130 151" fill="none" xmlns="http://www.w3.org/2000/svg">
<path d="M52.225 71.9815C51.8597 71.5814 51.3975 71.2822 50.9199 71.0329C49.8799 70.4906 48.7426 70.1617 47.6133 69.8647V78.6154C49.4462 78.4082 51.5506 77.743 52.513 76.0318C52.9724 75.2144 53.0638 74.2101 52.8767 73.3002C52.7751 72.8072 52.5654 72.3546 52.225 71.9815Z" fill="#3A3C3F"/>
<path d="M52.5078 76.0418C52.5102 76.0377 52.5116 76.0351 52.5141 76.0308C52.512 76.0344 52.5099 76.038 52.5078 76.0418Z" fill="black"/>
<path d="M39.0139 57.9939C38.6988 58.4541 38.5011 58.9768 38.4465 59.5325C38.392 60.0893 38.4226 60.7087 38.6341 61.2328C38.8356 61.7323 39.2575 62.1011 39.693 62.398C40.1817 62.7304 40.7191 62.9901 41.2665 63.2101C41.7257 63.3949 42.2423 63.5717 42.7991 63.7425V55.8242C41.3924 56.1244 39.8555 56.7652 39.0139 57.9939Z" fill="#3A3C3F"/>
<path d="M52.547 75.9688C52.5361 75.9882 52.5243 76.0085 52.5127 76.03C52.5262 76.005 52.537 75.9867 52.547 75.9688Z" fill="black"/>
<path d="M52.5938 75.881C52.5952 75.8783 52.5954 75.8781 52.5938 75.881V75.881Z" fill="black"/>
<path d="M50.6948 28.2848C58.1364 22.0335 63.1088 7.95015 60.0487 7.33418C55.9828 6.51542 47.1534 10.1056 42.8858 10.7381C36.8329 11.469 30.2405 4.17446 26.54 8.24042C23.5313 11.5463 28.6971 23.5688 36.7791 28.8064C12.6669 40.6571 -21.2243 100.149 37.9007 104.466C119.71 110.439 78.7454 39.8331 50.6948 28.2848ZM57.7207 75.2028C57.4691 77.5221 56.2399 79.6195 54.4026 81.0434C52.4626 82.547 50.0293 83.2463 47.6117 83.4422V86.0048C47.6117 86.6905 47.3122 87.3537 46.7989 87.8076C46.0934 88.4319 45.0567 88.5859 44.2004 88.1913C43.3549 87.8023 42.7995 86.9352 42.7995 86.0048V83.2039C42.3849 83.1252 41.9734 83.0315 41.5666 82.9199C39.3072 82.2991 37.2113 81.089 35.6804 79.2987C34.9178 78.4062 34.2961 77.3937 33.8661 76.3005C33.7538 76.0149 33.6536 75.7239 33.5659 75.4297C33.4865 75.1634 33.4046 74.8927 33.3763 74.6151C33.3286 74.1495 33.4209 73.6744 33.638 73.2596C34.0841 72.4063 35.0241 71.8909 35.984 71.9765C36.9287 72.0603 37.7566 72.7159 38.054 73.6164C38.1456 73.8937 38.2078 74.178 38.3107 74.4524C38.4127 74.7249 38.5358 74.9899 38.6806 75.2421C38.9665 75.7389 39.3246 76.1969 39.7371 76.5945C40.5874 77.4137 41.6704 77.9461 42.7995 78.2628V68.742C40.5918 68.1705 38.313 67.4322 36.4899 66.0148C35.604 65.3256 34.8522 64.4693 34.3598 63.4558C33.8403 62.3862 33.6251 61.1945 33.6163 60.0109C33.6074 58.8091 33.8357 57.6179 34.337 56.5229C34.8066 55.4977 35.4827 54.5772 36.3116 53.8142C38.084 52.1828 40.4383 51.2729 42.7997 50.9387V50.7292V48.2785C42.7997 47.593 43.0992 46.9296 43.6125 46.4757C44.3182 45.8517 45.3545 45.6974 46.211 46.092C47.0563 46.4812 47.6119 47.3481 47.6119 48.2785V50.7292V50.9242C47.9266 50.9638 48.2403 51.0112 48.5525 51.0678C50.8713 51.4875 53.1393 52.445 54.8351 54.1168C55.6384 54.9087 56.2961 55.8522 56.7585 56.8811C56.8876 57.1682 57.0006 57.4619 57.0985 57.7613C57.1896 58.0405 57.2812 58.328 57.3247 58.6195C57.3943 59.0847 57.3234 59.5653 57.1243 59.9909C56.7164 60.8628 55.8016 61.418 54.8392 61.3768C53.8936 61.3356 53.0369 60.7199 52.6983 59.836C52.5975 59.5731 52.5471 59.2948 52.4442 59.0326C52.3404 58.7672 52.2059 58.514 52.051 58.2749C51.7499 57.8099 51.3598 57.4112 50.9144 57.0828C49.9499 56.3706 48.7801 55.9995 47.6112 55.7921V64.9032C49.0004 65.2358 50.3907 65.5986 51.7216 66.1234C53.7332 66.9166 55.6393 68.1329 56.7373 70.0508C56.567 69.752 56.4012 69.4609 56.7431 70.0607C57.0787 70.65 56.9185 70.3692 56.75 70.0738C57.6235 71.6133 57.9106 73.4541 57.7207 75.2028Z" fill="#142D51"/>
<path d="M52.4716 76.0918C52.4583 76.1156 52.4467 76.1366 52.4375 76.1526C52.4454 76.1388 52.4572 76.118 52.4716 76.0918Z" fill="black"/>
<path d="M34.1251 113.667L69.6807 151L69.6807 129.667C105.236 124.333 120.474 97.6667 125.554 71C112.855 89.6667 95.0775 98.2 69.6807 98.2L69.6807 76.3333L34.1251 113.667Z" fill="#142D51"/>
<path fill-rule="evenodd" clip-rule="evenodd" d="M74.4927 98.0934C72.9199 98.1646 71.3161 98.2 69.6807 98.2L69.6807 76.3333L34.1251 113.667L69.6807 151L69.6807 129.667C100.081 125.107 115.629 104.951 122.673 82.5336C123.867 78.7324 124.817 74.8662 125.554 71C123.343 74.2503 120.978 77.1933 118.445 79.8376C107.37 91.4017 93.0929 97.2515 74.4927 98.0934ZM114.778 89.7731C102.803 98.9857 87.9468 103.253 69.6807 103.253L64.8687 103.253L64.8687 88.5315L40.9304 113.667L64.8687 138.802L64.8687 125.285L69.0002 124.665C85.6687 122.165 97.3134 114.739 105.424 105.006C109.246 100.421 112.329 95.2645 114.778 89.7731Z" fill="#139DEE"/>
<circle cx="44.999" cy="67" r="24" fill="#142D51"/>
<path d="M29.1591 55H59V69.8249L42.3186 57.5311H38.6116L59 72.5367C57.5408 81.9832 50.1367 85.7662 45.4962 86.7602C44.5035 86.9729 43.4731 86.9083 42.4938 86.6401C30.0634 83.2353 28.3858 72.089 29.1591 66.7514L50.6594 82.1186L52.3275 80.4915L29.1591 63.678V55Z" fill="#139DEE"/>
</svg>
