<svg width="115" height="135" viewBox="0 0 115 135" fill="none" xmlns="http://www.w3.org/2000/svg">
<path d="M58.0649 72.7619C57.7008 72.3632 57.2401 72.065 56.7641 71.8166C55.7277 71.2761 54.5942 70.9483 53.4688 70.6523V79.3733C55.2955 79.1669 57.3927 78.5039 58.3518 76.7985C58.8097 75.9839 58.9008 74.983 58.7143 74.0762C58.6131 73.5848 58.4041 73.1338 58.0649 72.7619Z" fill="#3A3C3F"/>
<path d="M58.3467 76.8103C58.3495 76.8055 58.3511 76.8025 58.3541 76.7974C58.3517 76.8016 58.3492 76.8059 58.3467 76.8103Z" fill="black"/>
<path d="M44.8977 58.821C44.5836 59.2796 44.3866 59.8006 44.3322 60.3544C44.2778 60.9093 44.3083 61.5266 44.5192 62.049C44.7199 62.5468 45.1404 62.9143 45.5744 63.2102C46.0614 63.5415 46.5971 63.8003 47.1426 64.0196C47.6003 64.2038 48.1151 64.38 48.67 64.5502V56.6587C47.2681 56.9578 45.7364 57.5965 44.8977 58.821Z" fill="#3A3C3F"/>
<path d="M58.3845 76.7354C58.3737 76.7546 58.362 76.7746 58.3506 76.7958C58.364 76.7712 58.3745 76.753 58.3845 76.7354Z" fill="black"/>
<path d="M58.4326 76.6501C58.4358 76.6442 58.4363 76.6437 58.4326 76.6501V76.6501Z" fill="black"/>
<path d="M56.54 29.2127C63.9564 22.9825 68.912 8.94694 65.8623 8.33305C61.8101 7.51706 53.0106 11.0951 48.7575 11.7255C42.7251 12.4538 36.155 5.18403 32.4671 9.23621C29.4685 12.5309 34.6168 24.5126 42.6714 29.7325C18.6409 41.5431 -15.1355 100.833 43.7893 105.135C125.322 111.088 84.4956 40.7218 56.54 29.2127ZM63.5421 75.9717C63.2913 78.2832 62.0663 80.3735 60.2352 81.7926C58.3018 83.2911 55.8768 83.988 53.4674 84.1832V86.7372C53.4674 87.4206 53.1689 88.0815 52.6573 88.5339C51.9542 89.156 50.921 89.3095 50.0676 88.9163C49.225 88.5286 48.6715 87.6644 48.6715 86.7372V83.9458C48.2583 83.8673 47.8481 83.774 47.4428 83.6627C45.1909 83.044 43.1022 81.838 41.5765 80.0537C40.8164 79.1643 40.1968 78.1552 39.7683 77.0658C39.6564 76.7811 39.5566 76.4911 39.4692 76.1979C39.39 75.9325 39.3083 75.6627 39.2801 75.3861C39.2326 74.922 39.3246 74.4485 39.541 74.0351C39.9855 73.1847 40.9224 72.6711 41.879 72.7564C42.8205 72.8399 43.6457 73.4933 43.9421 74.3907C44.0334 74.6671 44.0953 74.9504 44.1979 75.2239C44.2995 75.4955 44.4222 75.7595 44.5665 76.011C44.8514 76.506 45.2084 76.9625 45.6195 77.3587C46.4669 78.1752 47.5462 78.7058 48.6715 79.0214V69.5328C46.4712 68.9632 44.2001 68.2275 42.3833 66.8149C41.5003 66.128 40.7511 65.2747 40.2604 64.2646C39.7426 63.1986 39.5281 62.0109 39.5194 60.8313C39.5104 59.6336 39.738 58.4465 40.2377 57.3552C40.7056 56.3334 41.3794 55.416 42.2055 54.6556C43.9719 53.0298 46.3182 52.123 48.6717 51.7899V51.5811V49.1386C48.6717 48.4555 48.9701 47.7943 49.4817 47.342C50.1851 46.72 51.2178 46.5663 52.0714 46.9595C52.9138 47.3475 53.4676 48.2114 53.4676 49.1386V51.5811V51.7754C53.7812 51.8149 54.0939 51.8621 54.4049 51.9186C56.7159 52.3368 58.9763 53.2911 60.6663 54.9572C61.4669 55.7464 62.1223 56.6867 62.5832 57.7121C62.7119 57.9982 62.8245 58.2909 62.922 58.5894C63.0128 58.8676 63.1041 59.1542 63.1475 59.4446C63.2168 59.9082 63.1461 60.3872 62.9477 60.8114C62.5412 61.6804 61.6295 62.2337 60.6704 62.1926C59.728 62.1516 58.8742 61.5379 58.5367 60.657C58.4362 60.395 58.386 60.1177 58.2835 59.8564C58.18 59.5919 58.046 59.3395 57.8916 59.1012C57.5916 58.6378 57.2027 58.2405 56.7588 57.9131C55.7976 57.2033 54.6318 56.8335 53.4669 56.6268V65.7071C54.8513 66.0386 56.2369 66.4001 57.5634 66.9231C59.5681 67.7137 61.4678 68.9258 62.5621 70.8372C62.3923 70.5395 62.2271 70.2493 62.5678 70.8471C62.9023 71.4344 62.7426 71.1545 62.5747 70.8602C63.4453 72.3944 63.7313 74.229 63.5421 75.9717Z" fill="#3A3C3F"/>
<path d="M58.31 76.8574C58.2969 76.8809 58.2854 76.9016 58.2764 76.9174C58.2841 76.9038 58.2958 76.8833 58.31 76.8574Z" fill="black"/>
<path d="M98.1919 94.3821C98.1919 103.635 90.691 111.136 81.4382 111.136C72.1854 111.136 64.6846 103.635 64.6846 94.3821C64.6846 85.1293 72.1854 77.6284 81.4382 77.6284C90.691 77.6284 98.1919 85.1293 98.1919 94.3821Z" fill="white"/>
<path d="M100.055 94.3847C100.055 104.666 91.7203 113 81.4394 113C71.1585 113 62.8242 104.666 62.8242 94.3847C62.8242 84.1038 71.1585 75.7695 81.4394 75.7695C91.7203 75.7695 100.055 84.1038 100.055 94.3847Z" fill="#3A3C3F"/>
<path fill-rule="evenodd" clip-rule="evenodd" d="M81.4394 109.742C89.9211 109.742 96.7969 102.866 96.7969 94.3847C96.7969 85.903 89.9211 79.0272 81.4394 79.0272C72.9577 79.0272 66.0819 85.903 66.0819 94.3847C66.0819 102.866 72.9577 109.742 81.4394 109.742ZM81.4394 113C91.7203 113 100.055 104.666 100.055 94.3847C100.055 84.1038 91.7203 75.7695 81.4394 75.7695C71.1585 75.7695 62.8242 84.1038 62.8242 94.3847C62.8242 104.666 71.1585 113 81.4394 113Z" fill="#E5E5E5"/>
<path d="M88.4165 96.5904L83.6739 94.885V85.4254C83.6739 84.8391 83.4582 84.2769 83.0742 83.8623C82.6903 83.4477 82.1695 83.2148 81.6265 83.2148C81.0835 83.2148 80.5627 83.4477 80.1788 83.8623C79.7948 84.2769 79.5791 84.8391 79.5791 85.4254V96.4781C79.5795 96.9421 79.7148 97.3942 79.9659 97.7707C80.217 98.1472 80.5713 98.429 80.9787 98.5764L87.1209 100.787C87.3298 100.862 87.5486 100.9 87.7687 100.899C88.2551 100.899 88.7257 100.713 89.0962 100.373C89.4668 100.032 89.7131 99.5608 89.791 99.0425C89.8689 98.5241 89.7734 97.9927 89.5216 97.5434C89.2697 97.0941 88.878 96.7563 88.4165 96.5904V96.5904Z" fill="#E5E5E5"/>
<ellipse cx="48.8708" cy="67.7966" rx="21.9255" ry="23.9187" fill="#3A3C3F"/>
<path d="M35.0775 55.8374H64.8173V70.612L48.1924 58.3599H44.498L64.8173 73.3147C63.3636 82.7258 55.9895 86.4966 51.3643 87.489C50.3716 87.702 49.3412 87.6373 48.362 87.3689C35.9783 83.974 34.307 72.8678 35.0775 67.549L56.5049 82.8642L58.1674 81.2426L35.0775 64.486V55.8374Z" fill="#F3F3F3"/>
</svg>
